<svg width="52" height="52" viewBox="0 0 52 52" fill="none" xmlns="http://www.w3.org/2000/svg">
<path id="Avatar" d="M44.3848 7.6152C39.4741 2.7045 32.9447 0 26 0C19.0549 0 12.5259 2.7045 7.6152 7.6152C2.7045 12.5259 0 19.0549 0 26C0 32.9447 2.7045 39.4741 7.6152 44.3848C12.5259 49.2955 19.0549 52 26 52C32.9447 52 39.4741 49.2955 44.3848 44.3848C49.2955 39.4741 52 32.9447 52 26C52 19.0549 49.2955 12.5259 44.3848 7.6152ZM13.0345 44.9299C14.1219 38.6687 19.5476 34.0504 26 34.0504C32.4528 34.0504 37.8781 38.6687 38.9655 44.9299C35.2739 47.4662 30.8076 48.9531 26 48.9531C21.1924 48.9531 16.7261 47.4662 13.0345 44.9299ZM17.733 22.7365C17.733 18.1777 21.4416 14.4695 26 14.4695C30.5584 14.4695 34.267 18.1781 34.267 22.7365C34.267 27.2949 30.5584 31.0035 26 31.0035C21.4416 31.0035 17.733 27.2949 17.733 22.7365ZM41.6045 42.8165C40.7845 39.9018 39.1559 37.2572 36.8731 35.1914C35.4727 33.9239 33.8786 32.9237 32.1648 32.2187C35.2624 30.1982 37.3143 26.7026 37.3143 22.7365C37.3143 16.498 32.2386 11.4226 26 11.4226C19.7614 11.4226 14.6861 16.498 14.6861 22.7365C14.6861 26.7026 16.738 30.1982 19.8352 32.2187C18.1218 32.9237 16.5273 33.9235 15.1269 35.191C12.8445 37.2568 11.2155 39.9014 10.3955 42.8161C5.87872 38.6215 3.04688 32.6357 3.04688 26C3.04688 13.3436 13.3436 3.04688 26 3.04688C38.6564 3.04688 48.9531 13.3436 48.9531 26C48.9531 32.6361 46.1213 38.6219 41.6045 42.8165Z" fill="#2A9662"/>
</svg>
