<svg width="217" height="225" viewBox="0 0 217 225" fill="none" xmlns="http://www.w3.org/2000/svg">
<path fill-rule="evenodd" clip-rule="evenodd" d="M65.2121 29.7611C65.22 30.0648 65.3224 30.3585 65.505 30.6014C65.6876 30.8442 65.9414 31.0241 66.231 31.116C70.3755 33.0963 74.904 34.1433 79.4972 34.1832C85.6384 34.131 91.6223 32.2355 96.6735 28.7423C100.266 26.336 104.452 24.9672 108.772 24.7865C113.091 24.6059 117.377 25.6202 121.158 27.7181C119.376 29.2881 117.072 30.1365 114.698 30.0972H113.167V33.6711H114.698C121.699 33.6711 124.779 28.9358 125.215 28.2658L125.238 28.2302C125.398 27.9761 125.46 27.6731 125.414 27.3767V6.11971C125.395 5.8172 125.308 5.52287 125.16 5.25807C125.013 4.99328 124.808 4.76466 124.561 4.58879C115.722 -1.5296 103.304 -1.5296 94.4651 4.58879C86.1277 10.2057 76.6061 11.0539 67.5912 6.8025C67.2063 6.60807 66.761 6.57059 66.3491 6.69795C65.9372 6.82531 65.5908 7.10757 65.3828 7.48528C65.1412 7.85527 65.0421 8.30039 65.1039 8.73795C65.1657 9.17551 65.3842 9.57577 65.7189 9.86436L77.2835 19.8981L65.8896 28.2302C65.6109 28.3606 65.3889 28.5875 65.2644 28.8689C65.1398 29.1502 65.1213 29.4671 65.2121 29.7611ZM81.2148 21.2583C81.4248 21.0991 81.5951 20.8935 81.7123 20.6575C81.8296 20.4215 81.8906 20.1616 81.8906 19.8981C81.8906 19.6346 81.8296 19.3746 81.7123 19.1387C81.5951 18.9027 81.4248 18.697 81.2148 18.5378L74.4084 12.7555C82.063 14.1158 89.7176 12.2221 96.5188 7.65598C100.251 5.15963 104.62 3.78298 109.11 3.68846C113.599 3.59395 118.022 4.78551 121.856 7.12255V24.1281C113.354 19.7007 102.472 20.3942 94.4811 25.8298C87.0132 30.9293 78.6597 31.9535 70.477 29.2277L81.1935 21.2263L81.2148 21.2583ZM106.867 27.036V37.0643C108.209 36.7519 109.606 36.7519 110.948 37.0643V27.036C109.618 26.6286 108.197 26.6286 106.867 27.036ZM110.946 18.3682H106.866V14.4582H102.961V10.3721H106.866V6.63281H110.946V10.3721H114.691V14.4582H110.946V18.3682ZM196.939 161.973L196.939 161.973L196.939 161.973L196.939 161.973L196.939 161.973L196.939 161.973L196.939 161.973L196.939 161.972L196.939 161.972L196.939 161.972L196.94 161.972L196.94 161.972L196.94 161.972C197.569 161.215 198.199 160.458 198.874 159.702C199.102 159.437 199.33 159.172 199.559 158.907L199.567 158.898C204.617 153.042 209.749 147.091 213.324 139.634C216.386 133.004 217.592 126.203 216.727 119.898C215.995 114.591 213.903 109.563 210.655 105.302C207.407 101.041 203.114 97.6921 198.191 95.5789C199.878 92.831 200.598 89.5974 200.234 86.3933C200.186 86.0313 200.031 85.6919 199.789 85.419C199.546 85.146 199.228 84.9521 198.874 84.8624C198.516 84.777 198.142 84.781 197.786 84.874C197.429 84.967 197.101 85.1462 196.831 85.3958C195.851 86.3922 194.617 87.1006 193.262 87.4442C191.846 87.7273 190.383 87.667 188.995 87.2681L188.653 87.0974C184.457 85.5569 180.027 84.752 175.558 84.7184C173.735 84.7184 172.065 84.8759 170.25 85.0471L170.117 85.0597V84.7184C170.154 83.3824 169.922 82.0525 169.434 80.8083C169.332 80.537 169.172 80.2906 168.967 80.0855C168.762 79.8804 168.516 79.7213 168.244 79.6188C167.966 79.5175 167.669 79.4801 167.374 79.5097C167.079 79.5393 166.795 79.6349 166.543 79.7895C165.773 80.249 164.89 80.4837 163.993 80.467H163.316C162.358 80.3344 161.391 80.2791 160.424 80.3016C159.059 80.3285 157.696 80.4408 156.344 80.6377C155.021 80.8221 153.714 81.1056 152.434 81.4858C151.154 81.8377 149.906 82.2926 148.7 82.846C147.513 83.3706 146.375 83.997 145.297 84.7184C144.544 85.1468 143.86 85.6457 143.2 86.1273L143.2 86.1274C142.816 86.4072 142.44 86.6812 142.064 86.9321C141.021 87.7473 140.055 88.6562 139.178 89.6472C138.923 89.9912 138.622 90.2918 138.321 90.5921L138.32 90.5922L138.32 90.5923L138.32 90.5924L138.32 90.5925L138.32 90.5926L138.32 90.5926L138.32 90.5927L138.32 90.5928L138.32 90.5929L138.32 90.593L138.32 90.5931L138.319 90.5932C138.023 90.8886 137.728 91.1837 137.477 91.5195C136.964 92.1594 136.509 92.843 136.116 93.5625C135.884 93.9354 135.651 94.3211 135.414 94.7129C134.788 95.7505 134.135 96.8309 133.396 97.8299C133.311 97.9146 133.268 97.9993 133.226 98.0833C133.183 98.1687 133.14 98.2534 133.054 98.3367L132.884 98.5074L132.713 98.6781C132.542 98.8488 132.416 99.0195 132.289 99.1901C132.162 99.3608 132.036 99.5316 131.865 99.7023C131.697 99.8697 131.531 100.077 131.365 100.285L131.364 100.285C131.191 100.501 131.017 100.718 130.841 100.892C130.29 101.421 129.778 101.99 129.31 102.593L128.632 103.271C128.459 103.445 128.242 103.618 128.026 103.791L128.026 103.791L128.026 103.792L128.026 103.792L128.026 103.792L128.026 103.792L128.025 103.792L128.025 103.792L128.025 103.792L128.025 103.792L128.025 103.792L128.025 103.793C127.817 103.959 127.61 104.125 127.443 104.29L127.101 104.631L121.148 100.55L120.3 94.9388C120.431 94.6799 120.585 94.4452 120.736 94.2159L120.736 94.2156L120.737 94.2155C120.981 93.8448 121.216 93.4882 121.324 93.0665L121.49 92.7304L122.023 91.7062L122.189 91.3702C122.267 91.2179 122.311 91.0667 122.35 90.9303C122.399 90.7608 122.441 90.6142 122.535 90.5167C122.535 90.4313 122.577 90.3887 122.618 90.346C122.659 90.3033 122.701 90.2606 122.701 90.1753C122.718 90.0473 122.778 89.9289 122.871 89.8392L124.573 89.4978L125.939 79.9709L124.232 79.6348C124.232 79.2934 124.232 78.952 124.061 78.7867C124.061 78.6126 124.018 78.3983 123.975 78.1848C123.933 77.9729 123.89 77.7618 123.89 77.5918C123.6 76.4798 123.202 75.3989 122.701 74.3646V74.1459C121.207 71.3192 118.728 69.1385 115.734 68.0168H115.563C115.579 67.887 115.642 67.7674 115.739 67.6808C115.739 67.6101 115.768 67.5394 115.801 67.4565C115.848 67.3394 115.905 67.198 115.905 66.998C117.018 64.4174 119.005 62.3116 121.516 61.0503C121.708 61.6307 121.934 62.1989 122.194 62.7519C122.336 63.1258 122.595 63.4438 122.932 63.6582C123.27 63.8727 123.668 63.972 124.066 63.9415C124.574 63.9495 125.064 63.758 125.432 63.408C126.085 62.8694 126.656 62.2387 127.128 61.5357C128.226 59.7377 128.876 57.7026 129.025 55.6012C129.173 53.4999 128.816 51.3935 127.982 49.459C126.621 46.2318 123.896 44.1887 120.514 44.0234C119.419 44.0556 118.333 44.2351 117.286 44.5568C115.921 41.3189 112.352 39.2813 108.778 39.2813C105.204 39.2813 101.636 41.4896 100.275 44.5568C99.2715 44.0722 98.1493 43.8871 97.0429 44.0234C93.8157 44.1887 91.0952 46.2318 89.575 49.459C88.7415 51.3934 88.3836 53.4993 88.5311 55.6004C88.6787 57.7016 89.3275 59.7368 90.4231 61.5357C90.8983 62.2376 91.4713 62.8681 92.1247 63.408C92.5064 63.7318 92.9849 63.9194 93.485 63.9415C94.3331 63.9415 95.0159 63.7708 95.3573 62.7519C95.5269 62.1639 95.7539 61.594 96.0347 61.0503C98.5088 62.3613 100.481 64.4519 101.646 66.998C101.646 67.0716 101.676 67.1433 101.711 67.2267C101.759 67.343 101.817 67.4821 101.817 67.6808C101.831 67.8098 101.892 67.9293 101.988 68.0168H101.817C98.5845 69.0463 96.3761 71.2494 94.8452 74.1459V74.3166C94.3003 75.3316 93.8999 76.4179 93.6557 77.5438C93.5153 77.9256 93.4572 78.3328 93.485 78.7387C93.5282 79.0326 93.4678 79.3325 93.3143 79.5868L91.6126 79.9229L92.9729 89.4498L94.6745 89.7912V89.7913C94.6745 89.9566 94.6745 90.1273 94.8452 90.1273C94.8452 90.2126 94.8879 90.2553 94.9305 90.298C94.9732 90.3407 95.0159 90.3833 95.0159 90.4687C95.0907 90.6184 95.1327 90.768 95.1707 90.9033C95.2194 91.0766 95.2614 91.2263 95.3573 91.3222L95.528 91.6582C95.6933 91.9996 95.864 92.341 96.0347 92.6824L96.2054 93.0184C96.5409 93.6793 96.9392 94.3063 97.395 94.8908L96.5468 100.502L90.5938 104.583C89.3978 103.699 88.3141 102.673 87.3666 101.527L86.8332 100.993C86.16 100.298 85.5344 99.5586 84.9608 98.7794V98.6087L84.7901 98.438L84.6194 98.2673C84.5334 98.184 84.4908 98.0993 84.4477 98.014C84.4054 97.93 84.3627 97.8453 84.278 97.7606C84.0455 97.3876 83.8126 97.0019 83.5759 96.61C82.9495 95.5725 82.2971 94.4921 81.5576 93.4932C81.2754 93.1348 81.0545 92.775 80.8331 92.4145L80.8331 92.4144L80.8331 92.4143L80.833 92.4143L80.833 92.4142L80.8329 92.4141L80.8329 92.4141L80.8328 92.414L80.8328 92.4139L80.8327 92.4139L80.8327 92.4138L80.8326 92.4137L80.8326 92.4136C80.6356 92.0928 80.4383 91.7715 80.1974 91.4502C79.6779 90.7843 79.1091 90.1584 78.4957 89.5779C77.6179 88.5855 76.6501 87.6766 75.6046 86.8627C74.5986 86.0255 73.5163 85.2843 72.372 84.649C70.1758 83.2065 67.7677 82.1158 65.2348 81.4165C63.948 81.055 62.6405 80.7718 61.3195 80.5683C59.9675 80.3714 58.6046 80.2592 57.2387 80.2323C56.2722 80.214 55.3057 80.2693 54.3476 80.3976H53.6701C52.7736 80.4143 51.8904 80.1797 51.1204 79.7202C50.8695 79.5614 50.5851 79.4633 50.2897 79.4337C49.9943 79.4041 49.6961 79.4437 49.4187 79.5495C49.1479 79.6528 48.9019 79.8122 48.6969 80.0172C48.492 80.2222 48.3326 80.4682 48.2292 80.739C47.8369 82.0081 47.6074 83.322 47.5464 84.649V84.9904C41.0923 83.9074 34.4665 84.5534 28.3431 86.8627L28.0017 87.0281C26.6289 87.5132 25.1416 87.5727 23.7343 87.1988C22.3632 86.9038 21.1167 86.192 20.1657 85.1611C19.8955 84.9107 19.5676 84.731 19.2112 84.6379C18.8548 84.5448 18.4808 84.5413 18.1227 84.6277C17.7827 84.7429 17.4785 84.9447 17.24 85.2131C17.0015 85.4815 16.8369 85.8074 16.7625 86.1586C16.3976 89.3621 17.1149 92.5955 18.8002 95.3442C13.8779 97.4563 9.58516 100.805 6.3383 105.065C3.09144 109.325 1.00072 114.352 0.268983 119.658C-0.584496 125.957 0.605055 132.753 3.66691 139.394C7.23552 147.044 12.6818 153.338 18.1227 159.462L18.1229 159.462C19.4831 160.993 20.8433 162.524 22.0327 164.049C22.4375 164.601 22.8929 165.113 23.3929 165.58C26.6255 169.314 30.3702 173.747 30.3702 177.849C30.3702 182.266 27.6444 184.992 23.2223 184.992C22.2891 184.996 21.3643 184.814 20.5018 184.458C20.1813 184.319 19.8314 184.26 19.483 184.287C19.483 184.287 15.749 183.754 14.7195 187.179C14.371 187.151 14.0211 187.21 13.7006 187.349C12.8127 187.553 12.0362 188.089 11.5304 188.846C11.0246 189.604 10.8277 190.526 10.9802 191.425V191.601C12.3404 202.653 21.862 211.497 32.9199 211.497H33.2613C38.2809 211.473 43.1412 209.732 47.0344 206.563L47.205 206.734C47.5365 207.127 47.9537 207.438 48.4244 207.644C48.8951 207.85 49.4068 207.946 49.9202 207.923C50.7142 207.96 51.4964 207.721 52.1339 207.246C55.1719 205.128 57.6756 202.332 59.4471 199.079C59.6614 198.848 59.783 198.546 59.7885 198.231C59.8752 198.318 59.9179 198.447 59.9606 198.577C60.0019 198.702 60.0432 198.827 60.1246 198.914C60.3341 199.241 60.4873 199.486 60.6484 199.744L60.6487 199.744C60.75 199.906 60.8545 200.073 60.9781 200.269C70.8411 215.578 89.0362 224.929 108.592 224.929C128.147 224.929 146.347 215.407 156.21 200.269C156.532 199.843 156.816 199.39 157.059 198.914C157.142 198.828 157.185 198.698 157.227 198.57C157.27 198.437 157.313 198.307 157.4 198.231C157.446 198.324 157.493 198.404 157.536 198.478C157.651 198.676 157.741 198.831 157.741 199.079C159.513 202.332 162.017 205.128 165.055 207.246C165.701 207.7 166.474 207.937 167.263 207.923C167.777 207.946 168.29 207.851 168.761 207.644C169.233 207.438 169.651 207.127 169.983 206.734L170.154 206.563C174.101 209.636 178.927 211.365 183.927 211.497H184.269C195.321 211.497 204.848 202.824 206.203 191.601V191.499C206.285 190.611 206.059 189.722 205.564 188.98C205.069 188.238 204.334 187.689 203.482 187.424C203.162 187.284 202.812 187.226 202.464 187.253C201.445 183.85 197.7 184.362 197.7 184.362C197.353 184.336 197.006 184.394 196.687 184.533C195.818 184.874 194.894 185.055 193.961 185.066C189.539 185.066 186.818 182.34 186.818 177.924C186.818 173.843 190.552 169.389 193.79 165.655C194.23 165.241 194.628 164.785 194.98 164.295H194.958C195.649 163.523 196.293 162.749 196.938 161.974L196.938 161.974L196.938 161.974L196.938 161.974L196.938 161.974L196.938 161.974L196.938 161.973L196.939 161.973ZM175.755 88.4523C179.774 88.4107 183.762 89.163 187.49 90.666L187.826 90.8314C189.909 91.538 192.146 91.6561 194.292 91.1728C194.996 91.0219 195.681 90.7929 196.335 90.49C196.014 91.8874 195.437 93.2132 194.633 94.4C194.633 94.4 189.709 93.3492 186.973 93.3492C182.225 93.3427 177.556 94.5594 173.415 96.8821C169.274 99.2048 165.801 102.555 163.332 106.61C163.026 105.733 162.446 104.978 161.677 104.457C160.908 103.937 159.992 103.678 159.064 103.719H147.862C150.848 99.028 154.969 95.1665 159.844 92.4922C164.718 89.8179 170.189 88.4174 175.75 88.4203L175.755 88.4523ZM179.654 136.023C179.729 136.171 179.771 136.321 179.81 136.456C179.858 136.629 179.9 136.779 179.996 136.871C179.996 136.871 182.716 144.339 191.054 144.014H191.39C187.459 148.025 182.771 151.166 178.075 154.312L178.075 154.312C172.818 157.834 167.552 161.362 163.332 166.124V135.538C163.453 135.415 163.574 135.311 163.688 135.214L163.688 135.214L163.689 135.214L163.689 135.214C163.891 135.041 164.071 134.889 164.18 134.684C165.056 133.74 165.91 132.769 166.768 131.791C168.072 130.307 169.387 128.809 170.816 127.371C174.384 123.968 178.283 120.911 183.399 120.228C185.437 119.887 187.48 119.887 189.347 120.911C190.301 121.525 191.114 122.334 191.731 123.285C191.731 123.285 193.427 126.688 190.712 129.409C190.542 129.585 190.366 129.755 190.179 129.755C189.346 130.266 188.422 130.612 187.458 130.774C186.829 130.81 186.198 130.753 185.586 130.604C184.885 130.324 184.13 130.208 183.378 130.262C182.801 130.316 182.243 130.496 181.744 130.789C181.244 131.082 180.815 131.481 180.487 131.958C180.029 132.522 179.713 133.187 179.564 133.898C179.416 134.609 179.439 135.345 179.633 136.044L179.654 136.023ZM122.151 85.8759L122.494 82.5191C122.168 82.3971 121.784 82.2838 121.411 82.1736C121.199 82.1108 120.989 82.049 120.796 81.9872C120.521 81.9252 120.264 81.8655 120.013 81.8072L120.011 81.8067L120.01 81.8066C119.485 81.6846 118.989 81.5692 118.412 81.4538V86.5533L120.284 86.2173L122.151 85.8759ZM108.89 92.5117L108.912 92.5073L108.933 92.5117H108.89ZM108.912 92.5073L118.764 90.4687C118.373 91.2434 117.918 91.9839 117.404 92.6824C117.19 92.999 116.979 93.3176 116.768 93.6371C116.64 93.829 116.513 94.0211 116.385 94.2133C114.513 96.5924 111.963 98.2887 108.917 98.2887C105.871 98.2887 103.305 96.4217 101.449 94.2133C101.172 93.7811 100.899 93.3769 100.624 92.9695L100.623 92.9688L100.623 92.9687L100.623 92.9686L100.623 92.9685L100.623 92.9683L100.623 92.9682L100.623 92.9681L100.62 92.9631C100.557 92.8698 100.493 92.7764 100.43 92.6824C100.154 92.3288 99.9363 91.9308 99.7196 91.5345L99.7195 91.5343C99.5178 91.1654 99.3168 90.7978 99.0699 90.4687L108.912 92.5073ZM103.108 87.4121V80.6056C103.604 80.4968 104.082 80.3868 104.536 80.2822L104.538 80.2819L104.538 80.2818L104.539 80.2816C105.486 80.0636 106.331 79.8692 107.023 79.7575V88.255L103.108 87.4121ZM110.763 88.255V79.7575C111.35 79.8523 112.048 80.0139 112.825 80.1938L112.826 80.1939L112.826 80.1939L112.827 80.1941L112.829 80.1946C113.406 80.3281 114.026 80.4717 114.678 80.6056V87.4121L110.763 88.255ZM98.0137 57.135C98.8619 55.9454 99.71 54.9266 100.905 54.4145C100.905 54.4145 97.331 54.4145 93.437 57.9884C92.9349 56.8076 92.6761 55.5376 92.6761 54.2545C92.6761 52.9713 92.9349 51.7013 93.437 50.5205C94.2833 48.6535 95.6435 47.6329 97.5176 47.4586C98.8816 47.4956 100.219 47.8441 101.428 48.4775C102.888 49.282 104.169 50.3756 105.193 51.6917C106.216 53.0078 106.961 54.5187 107.381 56.1321C107.381 56.1321 108.234 51.8647 104.831 47.4586C104.658 47.2881 104.486 47.0723 104.314 46.8564L104.314 46.8563C104.147 46.6468 103.98 46.4372 103.812 46.2691C104.198 45.2124 104.888 44.2938 105.796 43.6292C106.704 42.9646 107.788 42.5839 108.912 42.5351C111.291 42.5351 113.504 44.0661 114.011 46.2691C113.633 46.6308 113.292 47.0293 112.992 47.4586C109.792 51.8807 110.443 56.1321 110.443 56.1321C110.803 54.4936 111.524 52.9562 112.554 51.6319C113.584 50.3076 114.896 49.23 116.396 48.4775C117.604 47.8448 118.942 47.4964 120.306 47.4586C121.199 47.5546 122.05 47.8896 122.769 48.4285C123.488 48.9673 124.049 49.69 124.392 50.5205C124.894 51.7013 125.152 52.9713 125.152 54.2545C125.152 55.5376 124.894 56.8076 124.392 57.9884C120.476 54.4145 116.924 54.4145 116.924 54.4145C118.044 55.1409 119.025 56.0623 119.82 57.135C116.58 58.7788 113.998 61.4792 112.502 64.7896C112.421 64.8727 112.38 65.0014 112.339 65.1287C112.296 65.263 112.253 65.3958 112.165 65.4724C112.165 65.5577 112.123 65.6417 112.08 65.7258C112.037 65.8098 111.995 65.8938 111.995 65.9791L108.933 64.4535C107.948 65.0299 106.925 65.5396 105.871 65.9791C105.871 65.8938 105.828 65.8098 105.786 65.7258C105.743 65.6417 105.7 65.5577 105.7 65.4724C105.616 65.3883 105.574 65.2576 105.532 65.1288C105.488 64.9961 105.446 64.8654 105.359 64.7896C103.812 61.5166 101.249 58.8315 98.0511 57.135H98.0137ZM103.625 70.9133C104.077 70.7343 104.577 70.5947 105.075 70.4557C105.512 70.3337 105.947 70.2123 106.346 70.0652C107.229 69.6749 108.081 69.2184 108.896 68.6996C109.711 69.2173 110.563 69.6738 111.445 70.0652C112.327 70.422 113.237 70.7057 114.166 70.9133C117.398 72.1029 119.441 74.6473 120.29 77.8852L117.402 77.1754C109.781 75.3023 109.222 75.1647 109.088 75.1647C108.917 75.1647 108.069 75.3354 97.8857 77.8852C98.1397 76.3128 98.8099 74.8371 99.8266 73.6111C100.843 72.3852 102.17 71.4537 103.668 70.9133H103.625ZM95.624 85.8759L95.1172 82.478C95.7217 82.2821 96.3495 82.1673 96.9842 82.1366C97.5615 82.0211 98.0583 81.9057 98.5834 81.7836L98.5855 81.7831C98.8361 81.7249 99.0932 81.6651 99.3686 81.6032V86.708L97.4963 86.3613L95.624 85.8546V85.8759ZM100.425 98.8008L100.596 98.9715C102.775 101.116 105.699 102.335 108.757 102.375C111.989 102.375 114.539 101.014 116.918 98.9715L117.265 98.6301L117.942 102.033L124.408 106.45L123.383 106.983C120.617 108.543 117.638 109.69 114.539 110.387C112.715 110.92 110.828 111.207 108.928 111.24C107.265 111.193 105.612 110.964 103.999 110.557C100.838 109.888 97.7984 108.74 94.9839 107.154C94.4952 106.932 94.0379 106.647 93.6236 106.306L99.9127 102.225L99.8914 102.204L100.425 98.8008ZM22.8649 91.1515C25.0085 91.6346 27.2439 91.5165 29.3246 90.8101L29.666 90.6447C33.3983 89.1564 37.3834 88.4046 41.4014 88.431C46.9421 88.4326 52.3947 89.8176 57.2646 92.4603C62.1345 95.103 66.2676 98.9197 69.2888 103.564H57.8949C56.9677 103.522 56.0515 103.779 55.2826 104.299C54.5137 104.819 53.9332 105.574 53.6275 106.45C51.1301 102.422 47.6521 99.0924 43.5186 96.7733C39.385 94.4542 34.731 93.221 29.9914 93.1891C27.2656 93.1891 22.3368 94.2133 22.3368 94.2133C21.5312 93.0253 20.9541 91.6975 20.6352 90.298C21.3287 90.6864 22.0741 90.9738 22.8489 91.1515H22.8649ZM58.4069 189.302C58.4511 189.596 58.3907 189.896 58.2363 190.15V190.32C58.2363 190.488 58.1939 190.656 58.1514 190.826C58.1086 190.997 58.0656 191.168 58.0656 191.339C57.7933 192.813 57.3362 194.247 56.7053 195.607V195.777C56.6212 195.861 56.5786 195.992 56.5365 196.121C56.4932 196.254 56.4505 196.384 56.3639 196.46C56.3639 196.626 56.1932 196.796 56.0225 196.967C54.4928 199.792 52.3426 202.234 49.7335 204.109C52.2285 200.639 53.5937 196.483 53.6435 192.209C53.6228 190.252 53.3375 188.307 52.7953 186.426C52.4366 190.619 51.162 194.681 49.0614 198.327C47.4291 201.136 45.0971 203.474 42.2927 205.114C39.4882 206.753 36.3069 207.639 33.0586 207.683H32.8826C24.0384 207.683 15.8717 200.365 14.8528 191.185L15.0235 191.355C16.2541 193.252 17.9434 194.808 19.9351 195.878C21.9268 196.949 24.1564 197.499 26.4175 197.479C29.8832 197.487 33.2211 196.171 35.7493 193.801C38.2774 191.43 39.805 188.184 40.0198 184.725C38.8757 187.595 36.782 189.986 34.0881 191.499L33.9174 191.675C33.5901 191.804 33.2887 191.96 32.9933 192.112C32.5184 192.357 32.0592 192.594 31.533 192.7C27.9644 193.862 21.6807 194.7 18.1014 187.765C18.3525 187.765 18.5084 187.855 18.7092 187.97C18.7813 188.012 18.8593 188.056 18.9495 188.101C19.2792 188.184 19.5691 188.311 19.857 188.437C20.1654 188.573 20.4715 188.707 20.8219 188.784C21.4937 188.921 22.1797 188.977 22.8649 188.95H24.7372C25.0851 188.975 25.4341 188.919 25.756 188.784C25.9949 188.809 26.2348 188.748 26.4335 188.613C27.3975 188.452 28.3213 188.106 29.1539 187.595C30.775 186.651 32.1225 185.302 33.0639 183.679C33.5789 182.848 33.9268 181.924 34.0881 180.959C34.286 179.951 34.4002 178.929 34.4295 177.902C34.4295 172.064 29.7525 166.822 25.9552 162.566C25.6548 162.229 25.3599 161.898 25.0732 161.574C23.8265 160.095 22.5468 158.628 21.2629 157.156C16.0648 151.198 10.7996 145.162 7.39021 137.933C4.8351 132.492 3.47487 126.373 4.32835 120.42C6.02998 107.33 16.9118 97.1258 30.1781 97.1258C34.3912 97.1404 38.5262 98.2636 42.1676 100.383C45.8091 102.502 48.8287 105.542 50.923 109.197L50.9548 109.26C51.3902 110.121 53.6435 114.573 53.6435 118.212V129.089C53.3473 128.758 53.0548 128.428 52.7643 128.101L52.7513 128.087L52.7489 128.084L52.7488 128.084C50.2095 125.225 47.8299 122.546 44.6286 120.415C39.529 116.681 31.8744 114.121 25.9214 117.359C24.7154 118.052 23.6645 118.986 22.8337 120.102C22.003 121.219 21.41 122.493 21.0915 123.848C20.773 125.202 20.7358 126.607 20.9821 127.977C21.2284 129.346 21.753 130.651 22.5235 131.809C22.5235 131.809 25.756 136.909 32.7279 135.036C32.7279 135.036 30.5142 142.013 22.3528 138.952C21.7379 138.774 21.1611 138.485 20.6512 138.098C19.6687 137.398 18.7575 136.603 17.9307 135.724C17.7521 135.445 17.5281 135.178 17.3063 134.913C17.1042 134.672 16.9039 134.432 16.7411 134.188C16.4622 133.831 16.2416 133.429 16.0222 133.029C15.8219 132.664 15.6227 132.3 15.3809 131.974C14.8879 131.013 14.5426 129.982 14.3567 128.918C13.778 125.734 14.2576 122.448 15.7223 119.562C16.8942 117.37 18.4868 115.431 20.409 113.856C22.3312 112.281 24.5452 111.1 26.9242 110.381C31.8531 109.021 38.1261 109.704 42.5696 112.254C43.2579 112.609 43.889 113.066 44.4419 113.609C45.0319 113.966 45.5508 114.429 45.9728 114.974C43.4177 109.704 36.7872 106.813 31.341 106.637C24.8812 105.959 18.5868 109.021 14.6768 114.105C12.859 116.405 11.5545 119.067 10.8506 121.912C10.1468 124.758 10.06 127.722 10.5961 130.604C11.72 136.545 16.1863 141.735 20.1175 146.303C20.3473 146.569 20.5752 146.834 20.8005 147.097C21.1813 147.55 21.5625 148.004 21.944 148.457L21.9493 148.464C28.7211 156.515 35.5477 164.631 40.6973 173.966C42.7275 177.735 43.7803 181.953 43.7591 186.234C43.7682 190.405 42.1624 194.416 39.2785 197.429C36.3946 200.441 32.4564 202.22 28.2898 202.392C31.3889 202.805 34.5421 202.455 37.4754 201.373C40.9784 199.839 43.8969 197.221 45.8021 193.905C52.8776 180.74 42.2677 167.425 34.3484 157.486L34.3447 157.482L34.3336 157.468C34.0726 157.14 33.8145 156.816 33.56 156.496C33.0266 155.813 30.4982 152.922 29.2926 151.562L38.6436 158.363C40.5159 159.723 42.3775 161.089 44.2605 162.63C47.0389 164.813 49.5461 167.32 51.7285 170.098C55.6438 174.862 58.871 181.999 58.3643 189.302H58.4069ZM25.4146 144.025H25.9481C34.2855 144.195 37.0006 136.882 37.0006 136.882C37.0788 136.73 37.1222 136.58 37.1614 136.444C37.2103 136.275 37.2525 136.129 37.3473 136.034C37.5945 135.352 37.6615 134.617 37.5419 133.901C37.4223 133.185 37.1201 132.513 36.6646 131.948C35.9192 131.073 34.9006 130.475 33.7734 130.251C33.0192 130.197 32.2625 130.314 31.5597 130.593C30.9493 130.742 30.32 130.8 29.6927 130.764C28.7418 130.764 27.935 130.299 27.1422 129.842C27.0855 129.81 27.0288 129.777 26.9722 129.745C26.8856 129.658 26.7989 129.615 26.7095 129.571C26.6227 129.529 26.5334 129.485 26.4388 129.398C23.7183 126.848 25.42 123.274 25.42 123.274C25.8877 122.213 26.7367 121.366 27.799 120.901C29.5007 119.876 31.7144 119.876 33.7521 120.218C38.8516 120.901 42.7669 123.786 46.3356 127.36C47.7733 128.801 49.0883 130.303 50.3912 131.79C51.2443 132.764 52.0922 133.732 52.966 134.674C53.0775 134.782 53.271 134.976 53.4809 135.187L53.4815 135.188L53.491 135.197L53.6389 135.346L53.8195 135.527V166.135C49.5644 161.627 44.4686 158.223 39.3683 154.816C34.4752 151.548 29.5779 148.277 25.4146 144.025ZM154.829 189.43V189.6C154.994 190.795 155.165 191.979 155.336 193.004C154.703 194.477 153.965 195.904 153.127 197.271C153.055 197.414 152.948 197.588 152.838 197.767C152.688 198.011 152.533 198.264 152.45 198.46C143.776 212.068 127.277 221.248 108.57 221.248C89.863 221.248 73.5402 212.063 64.696 198.434C64.6208 198.283 64.5081 198.1 64.3934 197.912L64.3933 197.912L64.3932 197.912L64.3928 197.911C64.2476 197.674 64.099 197.432 64.0186 197.244C63.3668 196.206 62.8177 195.067 62.2904 193.974C62.1273 193.636 61.9662 193.302 61.8049 192.977L61.8131 192.919C61.9811 191.749 62.1494 190.576 62.3383 189.574V189.403C62.6682 183.325 61.1827 177.287 58.0709 172.056V107.474H76.266L73.9713 103.711C73.9745 103.713 73.9777 103.715 73.981 103.716L73.9874 103.719C74.0081 103.727 74.0301 103.73 74.0523 103.73C71.6735 99.4197 68.4647 95.6236 64.6112 92.5602C60.7577 89.4968 56.3358 87.2268 51.6005 85.8812C51.6005 85.7139 51.5581 85.5028 51.5156 85.291C51.4728 85.0774 51.4298 84.8631 51.4298 84.6917V84.0142C52.4345 84.2364 53.4688 84.2923 54.4916 84.1796C55.0244 84.1796 55.4652 84.1344 55.8859 84.0912L55.8861 84.0912C56.2698 84.0519 56.6368 84.0142 57.0414 84.0142H57.7242C59.0901 84.0414 60.4529 84.1536 61.8049 84.3503C62.6688 84.4587 63.4661 84.7048 64.28 84.9561C64.7475 85.1005 65.2205 85.2465 65.7149 85.3691C66.9383 85.8663 68.1317 86.4344 69.2888 87.0708C70.4292 87.7124 71.5109 88.4532 72.5214 89.2845C73.5402 90.1326 74.559 90.9861 75.4072 91.8342C76.3988 92.7914 77.2582 93.8767 77.9623 95.0615C78.8105 96.427 79.6586 97.7873 80.6828 99.3288C81.5511 100.745 82.5784 102.056 83.7446 103.239C84.4944 104.076 85.2885 104.872 86.1237 105.623C86.2944 105.791 86.5077 105.961 86.721 106.13L86.7211 106.13L86.7213 106.13C86.9346 106.299 87.1479 106.469 87.3186 106.637L87.4839 106.813C87.6511 106.977 87.858 107.143 88.0656 107.31C88.282 107.483 88.4993 107.657 88.6735 107.832C88.6956 107.831 88.7177 107.835 88.7384 107.843C88.7591 107.851 88.7779 107.863 88.7939 107.878C88.8098 107.894 88.8225 107.912 88.8311 107.932C88.8397 107.953 88.8442 107.975 88.8442 107.997C89.1977 108.337 89.5983 108.624 90.0337 108.85C90.0563 108.85 90.0789 108.854 90.0999 108.862C90.1209 108.87 90.1401 108.883 90.1561 108.899L90.1598 108.903L90.1655 108.909C90.168 108.912 90.1704 108.915 90.1727 108.918L90.1743 108.92C90.1775 108.925 90.1804 108.93 90.1832 108.935C90.1869 108.941 90.1901 108.948 90.1929 108.955C90.2012 108.976 90.2052 108.999 90.2044 109.021C90.5896 109.401 91.0541 109.691 91.5646 109.869H91.7353C93.5363 111.069 95.4784 112.042 97.5176 112.766C97.6883 112.766 97.6883 112.766 97.859 112.931C98.1686 113.12 98.5169 113.237 98.8779 113.273C99.7588 113.633 100.669 113.916 101.598 114.121C104.039 114.778 106.542 115.176 109.066 115.31C111.599 115.261 114.112 114.861 116.534 114.121C117.465 113.916 118.377 113.633 119.26 113.273C119.429 113.187 119.599 113.144 119.769 113.101L119.77 113.101C119.939 113.059 120.109 113.016 120.279 112.931C120.352 112.931 120.394 112.931 120.431 112.918C120.481 112.901 120.523 112.86 120.62 112.766L120.62 112.766L120.62 112.766C122.629 111.972 124.564 111.003 126.403 109.869H126.573C126.823 109.704 127.032 109.579 127.241 109.453L127.241 109.453C127.457 109.324 127.673 109.195 127.934 109.021C127.938 109.021 127.942 109.021 127.947 109.021L127.953 109.021C127.958 109.02 127.963 109.02 127.968 109.019L127.972 109.018L127.98 109.016L127.988 109.014C127.992 109.013 127.996 109.011 128 109.01C128.021 109.001 128.04 108.989 128.056 108.973C128.072 108.957 128.084 108.938 128.093 108.917C128.101 108.896 128.105 108.873 128.104 108.85C128.459 108.514 128.857 108.227 129.288 107.997C129.288 107.997 129.464 107.997 129.464 107.832L129.801 107.49C129.89 107.49 129.934 107.448 129.977 107.406C130.019 107.365 130.061 107.325 130.142 107.325C130.313 107.149 130.483 106.978 130.675 106.978L130.841 106.813C131.137 106.478 131.482 106.19 131.865 105.959L132.036 105.794C132.87 105.041 133.664 104.245 134.415 103.41C134.684 103.14 134.941 102.839 135.196 102.542L135.196 102.542C135.445 102.25 135.692 101.961 135.946 101.708L136.287 101.372C136.467 101.086 136.697 100.813 136.924 100.543C137.122 100.309 137.318 100.077 137.477 99.841L137.818 99.4995C137.904 99.3224 138.037 99.0994 138.169 98.8781C138.292 98.6728 138.413 98.469 138.495 98.3047C138.852 97.7723 139.162 97.2866 139.474 96.7987L139.474 96.798L139.475 96.7974C139.759 96.352 140.045 95.9049 140.368 95.4189C141.216 94.2293 142.064 93.2051 142.917 92.1863C143.757 91.2034 144.73 90.3433 145.809 89.6312C146.844 88.8373 147.924 88.1018 149.041 87.4281C150.196 86.7902 151.388 86.2202 152.61 85.7212C153.861 85.2019 155.179 84.859 156.525 84.7024C157.877 84.5037 159.24 84.3897 160.606 84.361H161.283C162.137 84.3432 162.99 84.4003 163.833 84.5317C164.856 84.6453 165.891 84.5876 166.895 84.361V86.0626C162.02 87.3439 157.456 89.6029 153.481 92.7023C149.55 95.767 146.276 99.5901 143.853 103.944C143.84 103.952 143.828 103.961 143.817 103.972C143.809 103.98 143.802 103.99 143.796 104C143.79 104.008 143.786 104.018 143.782 104.027C143.774 104.048 143.77 104.07 143.771 104.092C143.798 104.043 143.826 103.993 143.853 103.944C143.859 103.941 143.865 103.937 143.872 103.935C143.892 103.926 143.914 103.922 143.936 103.922L141.557 107.832H159.752V172.44C155.842 177.54 154.482 183.642 154.823 189.44L154.829 189.43ZM182.716 178.036C182.748 179.066 182.862 180.091 183.058 181.103C183.218 182.065 183.564 182.988 184.076 183.818C184.546 184.626 185.118 185.37 185.778 186.032C186.441 186.689 187.182 187.26 187.987 187.733C188.834 188.218 189.755 188.562 190.712 188.752C190.798 188.752 190.937 188.796 191.072 188.839L191.073 188.839C191.199 188.879 191.32 188.918 191.39 188.918C191.739 188.889 192.089 188.95 192.409 189.094H194.281C195.637 189.158 196.985 188.863 198.191 188.24C198.356 188.158 198.486 188.115 198.611 188.074C198.746 188.03 198.876 187.987 199.039 187.899C195.47 194.871 189.181 194.022 185.607 192.833C184.772 192.601 183.972 192.258 183.228 191.814C183.219 191.814 183.21 191.814 183.201 191.813C183.194 191.812 183.187 191.81 183.181 191.809C183.175 191.807 183.168 191.805 183.162 191.803C183.141 191.794 183.122 191.782 183.106 191.766C183.097 191.757 183.09 191.748 183.083 191.738C183.078 191.729 183.073 191.719 183.069 191.71C183.064 191.697 183.061 191.685 183.059 191.672C183.059 191.668 183.058 191.663 183.058 191.659L183.058 191.651L183.058 191.643C180.355 190.123 178.254 187.723 177.105 184.842C177.322 188.301 178.851 191.546 181.38 193.915C183.909 196.284 187.247 197.599 190.712 197.591C192.963 197.579 195.177 197.018 197.161 195.956C199.134 194.901 200.821 193.383 202.078 191.534C200.963 200.62 192.856 207.827 184.076 207.827H183.906C177.105 207.662 170.981 204.093 167.903 198.477C165.804 194.83 164.53 190.768 164.169 186.576C163.625 188.454 163.339 190.397 163.321 192.353C163.339 196.634 164.707 200.801 167.231 204.259C164.619 202.385 162.467 199.943 160.937 197.116C160.937 196.967 160.805 196.817 160.662 196.653C160.641 196.63 160.621 196.607 160.6 196.583C160.52 196.49 160.478 196.368 160.436 196.247C160.391 196.12 160.347 195.993 160.259 195.905V195.735C159.624 194.377 159.167 192.942 158.899 191.467C158.899 191.301 158.857 191.134 158.815 190.966L158.814 190.966L158.814 190.966C158.771 190.795 158.728 190.623 158.728 190.448V190.283C158.773 189.987 158.712 189.685 158.557 189.43C158.024 182.122 161.278 174.974 165.023 170.226C167.294 167.529 169.793 165.03 172.49 162.758C174.363 161.222 176.224 159.862 178.102 158.491L187.458 151.69C186.797 152.577 185.419 154.112 184.389 155.261L184.388 155.262L184.387 155.263C183.832 155.881 183.378 156.387 183.191 156.619C183.058 156.785 182.924 156.953 182.789 157.122L182.466 157.527C174.517 167.479 163.848 180.837 170.922 194.033C172.731 197.43 175.685 200.076 179.26 201.501C182.189 202.592 185.343 202.942 188.44 202.52C184.284 202.32 180.362 200.534 177.484 197.529C174.606 194.524 172.99 190.529 172.971 186.368C172.869 182.077 173.926 177.839 176.032 174.099C181.173 164.781 187.985 156.677 194.74 148.639L194.741 148.639L194.741 148.639L194.741 148.639L194.741 148.639L194.741 148.638L194.741 148.638L194.741 148.638L194.741 148.638L194.741 148.638L194.741 148.638L194.742 148.638L194.762 148.614C195.149 148.152 195.537 147.691 195.924 147.23C196.25 146.85 196.583 146.466 196.92 146.076C200.799 141.596 205.191 136.523 206.128 130.737C206.667 127.855 206.581 124.891 205.877 122.045C205.173 119.199 203.867 116.537 202.048 114.238C200.069 111.757 197.536 109.776 194.652 108.453C191.767 107.13 188.613 106.502 185.442 106.621C179.83 106.797 173.173 109.688 170.821 114.958C171.187 114.589 171.453 114.37 171.702 114.165C171.913 113.991 172.111 113.828 172.346 113.593C173.001 113.185 173.627 112.732 174.219 112.238C178.641 109.688 184.935 109.005 189.864 110.365C194.643 111.865 198.657 115.154 201.066 119.546C202.508 122.439 202.985 125.718 202.426 128.902C202.242 129.966 201.899 130.997 201.407 131.958C201.054 132.753 200.597 133.498 200.047 134.172C199.704 134.723 199.305 135.238 198.858 135.708C198.03 136.586 197.119 137.381 196.137 138.082C195.627 138.469 195.05 138.758 194.436 138.936C186.269 141.997 184.06 135.02 184.06 135.02C191.038 136.893 194.265 131.793 194.265 131.793C195.033 130.635 195.556 129.332 195.802 127.965C196.048 126.597 196.011 125.194 195.694 123.841C195.376 122.488 194.785 121.214 193.957 120.099C193.129 118.983 192.081 118.049 190.878 117.353C184.93 113.95 177.275 116.665 172.176 120.41C169.24 122.609 166.812 125.194 164.341 127.825C163.948 128.244 163.553 128.664 163.156 129.083V118.201C163.156 114.627 165.54 109.864 165.881 109.187C167.945 105.502 170.957 102.436 174.605 100.308C178.252 98.1797 182.403 97.0663 186.626 97.0831C200.063 97.0831 210.774 107.288 212.476 120.378C213.324 126.331 211.943 132.449 209.414 137.89C206.003 145.097 200.764 151.11 195.587 157.053L195.586 157.054C194.288 158.545 192.992 160.032 191.731 161.532C191.101 162.382 190.395 163.267 189.663 164.185C186.442 168.224 182.716 172.896 182.716 178.025V178.036ZM115.563 173.8V174.477L121.474 171.031C121.474 171.031 121.815 171.031 121.645 170.695C121.645 170.348 121.308 170.519 121.308 170.519L119.265 171.053L113.99 167.319V163.051C114.331 163.051 114.502 163.051 114.673 163.222C115.004 163.373 115.289 163.61 115.498 163.908C115.708 164.206 115.833 164.555 115.862 164.918V166.113H115.697C115.697 166.113 121.645 168.834 121.986 169.004C122.636 168.146 123.522 167.495 124.536 167.132C124.605 167.064 124.69 167.014 124.782 166.984C124.875 166.954 124.973 166.947 125.069 166.961C125.345 166.832 125.628 166.72 125.917 166.625C126.543 166.499 127.093 166.131 127.448 165.601C126.791 166.037 126.023 166.274 125.234 166.284H124.216C123.699 166.256 123.182 166.314 122.685 166.454C122.007 166.284 122.343 165.26 122.343 165.26H123.197C123.474 165.179 123.758 165.124 124.045 165.094C124.749 164.918 124.216 163.899 124.216 163.899C124.045 163.558 123.218 163.734 122.685 163.899C122.45 163.909 122.219 163.968 122.007 164.07C121.33 163.899 121.154 162.715 121.154 162.368C121.06 162.275 121.019 162.234 121.002 162.185C120.988 162.148 120.988 162.106 120.988 162.032C120.992 161.943 121.03 161.859 121.093 161.795C121.156 161.732 121.241 161.695 121.33 161.691L123.367 160.843C123.538 160.352 124.194 159.989 124.728 159.819H124.898L125.069 158.971C125.15 158.971 125.192 158.929 125.234 158.887C125.277 158.844 125.321 158.8 125.411 158.8H125.747C127.689 158.595 129.637 159.143 131.187 160.331C131.188 160.339 131.187 160.347 131.186 160.355C131.185 160.365 131.183 160.375 131.18 160.385L131.179 160.39L131.176 160.397C131.168 160.418 131.155 160.437 131.139 160.453C131.123 160.469 131.104 160.482 131.083 160.49C131.062 160.498 131.039 160.502 131.017 160.501C131.017 160.331 130.846 160.331 130.681 160.331C131.544 161.024 132.238 161.906 132.709 162.908C133.181 163.91 133.417 165.006 133.401 166.113V166.284V166.454V166.625V166.791V169.004V169.175V169.34V169.511V169.682V169.852C133.261 170.159 133.082 170.446 132.868 170.706C132.73 171.01 132.55 171.294 132.334 171.549C132.317 171.736 132.261 171.918 132.169 172.082C131.734 172.876 131.445 173.741 131.316 174.637H131.145C130.956 174.391 130.839 174.097 130.803 173.789C130.536 174.261 130.364 174.781 130.297 175.32C130.102 176.223 130.161 177.163 130.467 178.035C130.467 178.206 130.467 178.206 130.297 178.206C129.645 177.949 129.063 177.543 128.598 177.019C128.636 178.487 129.11 179.913 129.961 181.113C129.961 181.305 130.126 181.476 130.297 181.646C130.668 182.105 131.134 182.479 131.662 182.743C132.19 183.007 132.768 183.155 133.359 183.177H133.529C134.111 183.181 134.687 183.069 135.225 182.848C135.763 182.627 136.251 182.301 136.662 181.89C137.073 181.478 137.398 180.989 137.619 180.451C137.839 179.913 137.95 179.337 137.946 178.755C137.94 178.044 137.767 177.344 137.439 176.712L136.906 175.693C136.008 173.936 135.598 171.969 135.718 169.999C135.838 168.029 136.484 166.127 137.589 164.491L137.759 164.321L137.925 164.15C137.947 164.151 137.97 164.147 137.992 164.139C138.013 164.13 138.032 164.118 138.049 164.102C138.065 164.086 138.078 164.067 138.087 164.046C138.096 164.025 138.101 164.002 138.101 163.979C138.163 163.917 138.224 163.855 138.284 163.795L138.286 163.793L138.286 163.793L138.287 163.792C138.36 163.718 138.432 163.645 138.505 163.573C138.548 163.53 138.591 163.488 138.634 163.446L139.141 162.939C139.333 162.753 139.498 162.582 139.674 162.406C139.933 162.274 140.163 162.093 140.352 161.872C140.445 161.782 140.564 161.724 140.693 161.707V162.731C140.577 163.587 140.152 164.37 139.498 164.934C139.243 165.15 138.96 165.33 138.655 165.468H138.479C137.619 166.857 137.095 168.428 136.948 170.055C136.778 171.818 137.132 173.593 137.967 175.155L138.501 176.179C138.841 176.986 139.022 177.852 139.034 178.729C139.034 179.488 138.884 180.239 138.591 180.94C138.299 181.641 137.87 182.276 137.33 182.81C136.791 183.344 136.15 183.765 135.447 184.05C134.743 184.335 133.99 184.477 133.23 184.468C132.77 184.496 132.309 184.438 131.87 184.298V184.639C131.721 185.251 131.663 185.882 131.7 186.511C131.717 187.259 131.832 188.001 132.041 188.72C132.722 189.076 133.481 189.259 134.249 189.253C134.709 189.281 135.171 189.223 135.61 189.082C136.045 188.926 136.509 188.866 136.97 188.906C137.043 188.892 137.119 188.895 137.19 188.917C137.261 188.939 137.326 188.978 137.379 189.03C137.432 189.083 137.471 189.148 137.493 189.22C137.514 189.291 137.518 189.367 137.503 189.44C137.062 189.47 136.646 189.659 136.333 189.971C136.02 190.284 135.832 190.7 135.802 191.141C135.808 193.114 135.149 195.032 133.929 196.582H128.488C128.49 196.131 128.669 195.699 128.988 195.381C129.307 195.062 129.739 194.882 130.19 194.881H131.892C132.708 193.91 133.238 192.732 133.423 191.477C132.643 191.679 131.843 191.795 131.038 191.824C130.234 191.808 129.435 191.691 128.659 191.477C128.142 190.43 127.688 189.352 127.299 188.25H128.318C129.069 188.18 129.781 187.885 130.361 187.402C130.453 187.31 130.513 187.19 130.531 187.061C130.443 186.964 130.321 186.903 130.19 186.89C129.469 187.087 128.728 187.201 127.982 187.231H127.299C126.909 187.245 126.521 187.18 126.157 187.039C125.545 186.89 124.914 186.833 124.285 186.869C123.998 186.869 123.704 186.922 123.446 186.969C123.244 187.006 123.063 187.039 122.925 187.039C122.77 187.039 122.644 187.081 122.515 187.123C122.382 187.166 122.247 187.21 122.077 187.21C121.72 187.891 121.537 188.65 121.543 189.418C121.515 189.88 121.573 190.343 121.714 190.784C121.866 191.22 121.924 191.684 121.885 192.144C121.899 192.217 121.896 192.293 121.874 192.364C121.852 192.436 121.813 192.501 121.761 192.554C121.708 192.606 121.643 192.645 121.571 192.667C121.5 192.689 121.424 192.692 121.351 192.678C121.321 192.235 121.132 191.818 120.818 191.504C120.504 191.19 120.087 191.001 119.644 190.971C117.673 190.975 115.757 190.318 114.203 189.104V183.657C114.654 183.659 115.086 183.839 115.405 184.157C115.724 184.476 115.903 184.908 115.905 185.359V187.061C116.876 187.876 118.054 188.406 119.308 188.592C119.111 187.813 118.997 187.015 118.967 186.213C118.984 185.407 119.099 184.606 119.308 183.828C119.382 183.754 119.969 183.52 120.747 183.209C121.762 182.804 123.104 182.268 124.066 181.785C123.896 180.937 123.047 179.918 122.365 179.235C121.419 178.245 120.772 177.008 120.498 175.667L113.867 177.71V172.093C114.318 172.096 114.749 172.277 115.067 172.596C115.385 172.916 115.563 173.349 115.563 173.8ZM88.8437 191.314C88.0669 191.521 87.2683 191.636 86.4646 191.655C85.6603 191.623 84.8614 191.509 84.0802 191.314C84.266 192.568 84.7959 193.746 85.6111 194.717H87.3181C87.7685 194.719 88.1999 194.899 88.5179 195.218C88.8359 195.536 89.0144 195.969 89.0144 196.419H83.5575C82.3426 194.864 81.6851 192.946 81.6905 190.973C81.6592 190.531 81.469 190.116 81.1551 189.804C80.8413 189.492 80.425 189.305 79.9835 189.276C79.9675 189.203 79.9701 189.127 79.9913 189.055C80.0124 188.983 80.0513 188.917 80.1044 188.864C80.1576 188.811 80.2232 188.772 80.2953 188.751C80.3673 188.73 80.4436 188.727 80.5169 188.743C80.9769 188.705 81.4397 188.761 81.8772 188.908C82.3153 189.053 82.777 189.112 83.2374 189.084C84.0074 189.087 84.7667 188.904 85.4511 188.551C85.6579 187.832 85.7726 187.09 85.7925 186.343C85.8298 185.713 85.7704 185.082 85.6165 184.47V184.129C85.1775 184.269 84.7163 184.327 84.2563 184.299C83.4953 184.305 82.7409 184.159 82.0368 183.871C81.3327 183.582 80.6929 183.157 80.1549 182.619C79.6168 182.08 79.1911 181.441 78.9025 180.737C78.6139 180.033 78.4682 179.278 78.4739 178.517C78.4856 177.641 78.6668 176.775 79.0073 175.967L79.5408 174.943C80.3785 173.382 80.7331 171.607 80.5596 169.844C80.4141 168.214 79.8899 166.642 79.0287 165.251H78.858C78.5538 165.121 78.2685 164.95 78.0098 164.744C77.3568 164.178 76.9337 163.393 76.8203 162.536V161.512C76.9493 161.531 77.0687 161.591 77.1617 161.682C77.3526 161.9 77.5823 162.081 77.8392 162.216L78.3726 162.749L78.906 163.256C79.0767 163.419 79.2545 163.597 79.4394 163.789C79.4394 163.811 79.4439 163.833 79.4525 163.854C79.4611 163.874 79.4738 163.893 79.4897 163.908C79.5057 163.924 79.5245 163.936 79.5452 163.944C79.5659 163.952 79.588 163.955 79.6101 163.955L79.7808 164.125L79.9515 164.296C81.0209 165.925 81.6647 167.795 81.8238 169.737C81.8949 171.739 81.4426 173.724 80.5116 175.498L79.9782 176.517C79.6445 177.147 79.4619 177.847 79.4448 178.56C79.4398 179.142 79.5507 179.72 79.7711 180.259C79.9915 180.798 80.317 181.288 80.7286 181.7C81.1401 182.112 81.6295 182.438 82.1683 182.659C82.7071 182.88 83.2845 182.992 83.8669 182.987H84.0909C84.6814 182.965 85.2603 182.816 85.7885 182.551C86.3166 182.286 86.7818 181.911 87.1527 181.451C87.3288 181.28 87.4941 181.115 87.4941 180.918C88.3401 179.715 88.8116 178.291 88.8517 176.824C88.389 177.35 87.8062 177.757 87.1527 178.01C87.0701 178.01 87.0287 178.01 87.0081 177.99C86.9874 177.969 86.9874 177.928 86.9874 177.845C87.2947 176.969 87.352 176.026 87.1527 175.119C87.0816 174.578 86.9 174.057 86.6193 173.588C86.5849 173.898 86.4669 174.193 86.2779 174.442H86.1073C85.981 173.548 85.6937 172.684 85.2591 171.892C85.1655 171.728 85.1074 171.546 85.0884 171.359C84.8717 171.1 84.6921 170.813 84.555 170.505C84.3393 170.248 84.1599 169.963 84.0215 169.657V169.486V169.316V169.15V168.98V168.809V166.6V166.43V166.259V166.088V165.918C84.0053 164.809 84.2424 163.711 84.7148 162.708C85.1871 161.705 85.8823 160.824 86.7473 160.13C86.5766 160.13 86.406 160.13 86.406 160.306C86.3831 160.306 86.3605 160.301 86.3394 160.293C86.3183 160.284 86.2992 160.271 86.2833 160.254C86.2674 160.238 86.255 160.218 86.2467 160.197C86.241 160.182 86.2374 160.167 86.2359 160.151C86.2353 160.144 86.2351 160.137 86.2353 160.13C87.788 158.946 89.7343 158.4 91.6762 158.604H92.0923C92.1776 158.604 92.2203 158.647 92.263 158.69C92.3056 158.732 92.3483 158.775 92.4337 158.775L92.6044 159.623H92.7697C93.3031 159.794 93.9593 160.13 94.13 160.642L96.173 161.496C96.2606 161.502 96.3432 161.539 96.4058 161.6C96.4684 161.662 96.5069 161.744 96.5143 161.832C96.5143 161.908 96.5143 161.951 96.5006 161.989C96.4826 162.039 96.4407 162.081 96.3437 162.178L96.3436 162.178C96.3436 162.52 96.173 163.709 95.4955 163.875C95.2809 163.775 95.0489 163.719 94.8127 163.709C94.2793 163.533 93.4525 163.363 93.2818 163.709C93.2818 163.709 92.7484 164.728 93.4525 164.893C93.7401 164.925 94.0241 164.984 94.3007 165.07H95.1541C95.1541 165.07 95.4955 166.088 94.8127 166.259C94.3153 166.118 93.798 166.061 93.2818 166.088H92.263C91.4757 166.077 90.7079 165.842 90.0492 165.411C90.4057 165.939 90.9557 166.305 91.5802 166.43C91.8703 166.527 92.1552 166.639 92.4337 166.766C92.5255 166.755 92.6187 166.764 92.7064 166.794C92.7941 166.823 92.8741 166.872 92.9404 166.937C93.955 167.301 94.8424 167.951 95.4955 168.809C95.8316 168.638 101.785 165.918 101.785 165.918H101.614V164.728C101.642 164.364 101.767 164.014 101.976 163.715C102.186 163.416 102.471 163.178 102.803 163.027C102.979 162.856 103.145 162.856 103.486 162.856V167.123L98.216 170.857L96.0023 170.174C96.0023 170.174 95.6609 170.004 95.6609 170.34C95.4955 170.686 95.8316 170.686 95.8316 170.686L101.785 173.748V173.06C101.786 172.61 101.966 172.178 102.285 171.86C102.604 171.542 103.036 171.364 103.486 171.364V176.976L96.8398 174.965C96.5653 176.309 95.9162 177.548 94.9674 178.539C94.2846 179.216 93.4365 180.235 93.2658 181.094C94.2258 181.569 95.5643 182.104 96.5794 182.51L96.5798 182.51L96.5801 182.51L96.5811 182.51L96.5812 182.51L96.5819 182.511L96.5838 182.511L96.5843 182.511C97.3661 182.824 97.955 183.059 98.0293 183.131C98.2385 183.908 98.3531 184.706 98.3707 185.51C98.3412 186.313 98.2268 187.111 98.0293 187.889C99.2818 187.707 100.459 187.179 101.427 186.364V184.662C101.429 184.212 101.609 183.78 101.927 183.462C102.246 183.144 102.678 182.966 103.129 182.966V188.402C101.576 189.618 99.6601 190.277 97.6879 190.274C97.2473 190.304 96.8324 190.492 96.5196 190.804C96.2069 191.115 96.0174 191.53 95.9863 191.97C95.9148 191.981 95.8418 191.975 95.7734 191.951C95.705 191.928 95.6433 191.888 95.5935 191.836C95.5437 191.783 95.5074 191.72 95.4875 191.65C95.4677 191.581 95.4649 191.508 95.4795 191.437C95.4417 190.979 95.4979 190.517 95.6449 190.082C95.7852 189.643 95.8431 189.182 95.8156 188.722C95.82 187.953 95.6369 187.195 95.2821 186.513C95.108 186.513 94.9727 186.467 94.8401 186.423C94.7129 186.379 94.5882 186.337 94.434 186.337C94.2957 186.337 94.1141 186.305 93.9106 186.269C93.6509 186.224 93.3555 186.172 93.0684 186.172H92.2203L92.5617 183.451C92.5617 183.451 92.5617 183.11 92.391 183.11C92.2616 183.128 92.1417 183.188 92.0496 183.281L88.817 191.282L88.8437 191.314ZM121.978 124.265C124.067 125.575 125.776 127.41 126.936 129.586H126.941C128.771 130.475 130.296 131.887 131.325 133.642C132.354 135.397 132.841 137.417 132.723 139.449C132.735 140.999 132.407 142.534 131.762 143.944C131.117 145.354 130.17 146.605 128.99 147.61C128.087 149.814 126.623 151.743 124.742 153.205C122.862 154.667 120.632 155.611 118.273 155.942H117.937C115.976 156.346 114.214 157.411 112.944 158.959C111.674 160.507 110.973 162.443 110.96 164.445V188.07C110.96 188.412 111.136 193.853 117.259 194.706H118.614C119.109 194.71 119.582 194.908 119.932 195.257C120.282 195.606 120.481 196.079 120.487 196.573H96.4826C96.4868 196.078 96.6856 195.605 97.0359 195.256C97.3863 194.906 97.8601 194.709 98.3549 194.706H99.7098C105.321 193.853 106.004 189.095 106.004 188.07V164.434C106 162.335 105.245 160.307 103.875 158.716C102.505 157.125 100.612 156.077 98.5363 155.761C96.221 155.426 94.0375 154.478 92.2122 153.014C90.387 151.551 88.9864 149.626 88.1558 147.439C86.9897 146.422 86.0535 145.168 85.4097 143.761C84.7659 142.354 84.4291 140.825 84.4219 139.278C84.4225 137.291 84.9603 135.342 85.9782 133.635C86.996 131.929 88.4562 130.53 90.2042 129.586C91.3821 127.425 93.0958 125.603 95.1807 124.295C97.2657 122.987 99.652 122.237 102.11 122.118C104.065 120.964 106.301 120.375 108.57 120.416C110.832 120.435 113.053 121.02 115.03 122.118C117.494 122.215 119.889 122.955 121.978 124.265ZM125.922 145.236L126.6 144.559H126.621C127.44 143.913 128.097 143.085 128.54 142.14C128.982 141.195 129.198 140.161 129.171 139.118C129.175 137.785 128.812 136.476 128.122 135.335C127.431 134.195 126.439 133.267 125.256 132.653L124.237 132.119L123.703 131.095C122.866 129.504 121.623 128.162 120.1 127.206C118.576 126.25 116.827 125.715 115.03 125.654H114.176L113.328 125.313C111.934 124.507 110.346 124.098 108.735 124.129C107.129 124.118 105.548 124.526 104.148 125.313L103.294 125.654H102.473C100.681 125.738 98.9416 126.283 97.4221 127.236C95.9027 128.19 94.6549 129.519 93.7995 131.095L93.2661 132.119L92.2472 132.653C91.1915 133.193 90.2858 133.986 89.6106 134.961C88.9353 135.936 88.5115 137.063 88.3769 138.241C88.2423 139.42 88.401 140.613 88.8389 141.715C89.2769 142.817 89.9804 143.794 90.887 144.559L91.5218 145.172L91.8632 146.026C92.3749 147.422 93.2133 148.675 94.3083 149.681C95.4033 150.687 96.7232 151.416 98.1576 151.808C99.1955 152.017 100.217 152.3 101.214 152.656L101.747 153.19C101.94 153.19 102.11 153.36 102.281 153.531C102.54 153.664 102.772 153.845 102.964 154.065C104.703 155.136 106.698 155.722 108.741 155.761C110.778 155.807 112.781 155.234 114.486 154.118C114.741 153.978 114.971 153.798 115.168 153.584C115.35 153.584 115.517 153.423 115.688 153.257L115.702 153.243L116.235 152.71C117.234 152.354 118.257 152.07 119.297 151.861C120.703 151.419 121.994 150.672 123.079 149.675C124.164 148.677 125.016 147.453 125.576 146.09L125.922 145.236ZM131.875 115.469C129.307 116.943 126.563 118.087 123.708 118.872H147.712V170.908C147.709 173.94 147.365 176.962 146.688 179.917C145.858 183.215 144.661 186.408 143.119 189.439L143.051 189.575C142.904 189.871 142.757 190.166 142.586 190.458C139.161 196.404 134.23 201.343 128.289 204.777C122.348 208.211 115.607 210.019 108.745 210.019C101.883 210.019 95.1425 208.211 89.2016 204.777C83.2608 201.343 78.3296 196.404 74.9049 190.458L74.3714 189.439C72.6863 186.473 71.4801 183.259 70.7975 179.917C70.1153 176.963 69.7734 173.94 69.7786 170.908V118.872H94.0975C91.2071 118.042 88.4152 116.901 85.7707 115.469H66.4021V170.908C66.3555 174.177 66.7557 177.438 67.5916 180.6C68.4627 184.203 69.776 187.684 71.5016 190.964C71.7009 191.378 71.929 191.777 72.1844 192.159C75.8979 198.618 81.249 203.984 87.6979 207.715C94.1469 211.446 101.466 213.41 108.916 213.41C116.366 213.41 123.685 211.446 130.134 207.715C136.583 203.984 141.934 198.618 145.648 192.159C145.846 191.745 146.074 191.345 146.33 190.964C148.081 187.695 149.396 184.211 150.24 180.6C150.98 177.42 151.378 174.171 151.43 170.908V115.469H131.875ZM156.698 115.469L157.722 116.317L156.02 118.013L157.722 119.544L156.698 120.568L155.167 118.872L153.465 120.568L152.617 119.544L154.319 118.013L152.617 116.317L153.465 115.469L155.167 117.165L156.698 115.469ZM64.5265 116.317L63.6783 115.469L62.1474 117.165L60.4458 115.469L59.5977 116.317L61.2939 118.013L59.5977 119.544L60.4458 120.568L62.1474 118.872L63.6783 120.568L64.5265 119.544L62.9956 118.013L64.5265 116.317ZM156.698 155.254L157.722 156.278L156.02 157.809L157.722 159.511L156.698 160.359L155.167 158.657L153.465 160.359L152.617 159.511L154.319 157.809L152.617 156.278L153.465 155.254L155.167 156.956L156.698 155.254ZM64.5265 156.278L63.6783 155.254L62.1474 156.956L60.4458 155.254L59.5977 156.278L61.2939 157.809L59.5977 159.511L60.4458 160.359L62.1474 158.657L63.6783 160.359L64.5265 159.511L62.9956 157.809L64.5265 156.278ZM73.0338 196.754L73.882 197.602L72.1803 199.133L73.882 200.84L73.0338 201.688L71.3269 199.986L69.7959 201.688L68.9531 200.84L70.4787 199.133L68.9531 197.602L69.7959 196.754L71.3269 198.285L73.0338 196.754ZM148.538 197.602L147.69 196.754L145.988 198.285L144.458 196.754L143.609 197.602L145.135 199.133L143.609 200.84L144.458 201.688L145.988 199.986L147.69 201.688L148.538 200.84L146.842 199.133L148.538 197.602ZM110.272 214.785L111.126 215.633L109.595 217.335L111.126 218.86L110.272 219.714L108.741 218.178L107.04 219.714L106.191 218.86L107.893 217.335L106.191 215.633L107.04 214.785L108.741 216.487L110.272 214.785Z" fill="url(#paint0_linear_2388_773)" fill-opacity="0.3"/>
<defs>
<linearGradient id="paint0_linear_2388_773" x1="-0.0170056" y1="96.8938" x2="321.362" y2="96.8938" gradientUnits="userSpaceOnUse">
<stop stop-color="#FB8E2F"/>
<stop offset="0.08" stop-color="#FB8E2F" stop-opacity="0.88"/>
<stop offset="0.26" stop-color="#FB8E2F" stop-opacity="0.62"/>
<stop offset="0.44" stop-color="#FB8E2F" stop-opacity="0.4"/>
<stop offset="0.6" stop-color="white" stop-opacity="0.23"/>
<stop offset="0.75" stop-color="white" stop-opacity="0.1"/>
<stop offset="0.87" stop-color="white" stop-opacity="0.03"/>
<stop offset="0.95" stop-color="white" stop-opacity="0"/>
</linearGradient>
</defs>
</svg>
