<svg width="1920" height="157" viewBox="0 0 1920 157" fill="none" xmlns="http://www.w3.org/2000/svg">
<path d="M1920 157V0H0V157H246.757H1920Z" fill="white"/>
<mask id="mask0" style="mask-type:alpha" maskUnits="userSpaceOnUse" x="0" y="0" width="1920" height="157">
<path d="M1920 157V0H0V157H246.757H1920Z" fill="white"/>
</mask>
<g mask="url(#mask0)">
<path fill-rule="evenodd" clip-rule="evenodd" d="M561.063 -128.223C420.933 -127.403 221.721 -119.411 -2.65282 26.8004C-141.361 117.188 -303.249 109.758 -382.499 75.8831C-384.022 75.2319 -385.785 75.939 -386.437 77.4625C-387.088 78.986 -386.381 80.749 -384.857 81.4002C-303.85 116.026 -139.839 123.358 0.622904 31.8273C223.544 -113.437 421.35 -121.405 561.098 -122.223C562.755 -122.233 564.09 -123.584 564.081 -125.24C564.071 -126.897 562.72 -128.233 561.063 -128.223ZM-0.707971 64.1803C223.545 -81.9522 422.64 -89.9418 562.738 -90.7619C564.119 -90.77 565.244 -89.6573 565.253 -88.2766C565.261 -86.8959 564.148 -85.7701 562.767 -85.762C422.987 -84.9437 225.064 -76.9742 2.0218 68.3694C-138.294 159.805 -302.128 152.465 -382.989 117.901C-384.258 117.359 -384.848 115.89 -384.305 114.62C-383.762 113.35 -382.293 112.761 -381.024 113.304C-301.628 147.241 -139.562 154.663 -0.707971 64.1803ZM564.366 -54.301C424.3 -53.481 225.322 -45.4935 1.19 100.56C-137.81 191.138 -300.053 183.725 -379.595 149.724C-380.611 149.29 -381.786 149.762 -382.22 150.777C-382.654 151.793 -382.183 152.968 -381.167 153.403C-300.453 187.903 -136.796 195.252 3.37381 103.911C226.537 -41.5111 424.577 -49.4826 564.389 -50.301C565.494 -50.3075 566.384 -51.2082 566.378 -52.3127C566.371 -53.4173 565.47 -54.3074 564.366 -54.301ZM727.985 -54.9528C657.907 -54.5426 532.664 -43.7436 396.967 -14.8222C261.284 14.096 115.011 61.1609 2.96452 134.175C-136.182 224.849 -298.601 217.443 -378.29 183.38C-379.052 183.055 -379.933 183.408 -380.259 184.17C-380.584 184.932 -380.231 185.813 -379.469 186.139C-298.902 220.577 -135.421 227.934 4.60238 136.688C116.204 63.9645 262.066 16.9967 397.592 -11.8881C533.103 -40.7697 658.141 -51.5439 728.003 -51.9529C728.831 -51.9577 729.499 -52.6332 729.494 -53.4616C729.489 -54.2901 728.813 -54.9577 727.985 -54.9528Z" fill="url(#paint0_linear)"/>
<path fill-rule="evenodd" clip-rule="evenodd" d="M1531.82 -56.5543C1591.07 -65.57 1676 -75.5417 1780.82 -28.6477C1844.79 -0.0282721 1911.96 -13.8906 1942.65 -33.1689C1944.06 -34.0501 1945.91 -33.6271 1946.79 -32.224C1947.67 -30.8209 1947.25 -28.9691 1945.85 -28.0879C1913.53 -7.79317 1844.26 6.30365 1778.37 -23.1708C1675.14 -69.3567 1591.59 -59.5809 1532.72 -50.6225C1531.08 -50.3733 1529.55 -51.4991 1529.3 -53.1371C1529.05 -54.7751 1530.18 -56.305 1531.82 -56.5543ZM1782.38 -12.4916C1677.69 -59.3266 1592.87 -49.3713 1533.65 -40.3603C1532.29 -40.1526 1531.35 -38.8777 1531.56 -37.5127C1531.76 -36.1477 1533.04 -35.2095 1534.4 -35.4172C1593.31 -44.3804 1676.97 -54.1725 1780.34 -7.92756C1846.06 21.4756 1915.16 7.39836 1947.34 -12.8117C1948.51 -13.546 1948.86 -15.0892 1948.13 -16.2584C1947.39 -17.4276 1945.85 -17.7802 1944.68 -17.0459C1913.85 2.31714 1846.51 16.199 1782.38 -12.4916ZM1535.44 -24.5926C1594.63 -33.5988 1679.33 -43.5378 1783.89 3.23821C1848.18 32.0001 1915.69 18.0987 1946.66 -1.34899C1947.59 -1.93646 1948.83 -1.65444 1949.42 -0.719044C1950 0.216348 1949.72 1.45086 1948.79 2.03834C1916.74 22.1637 1847.82 36.2214 1782.25 6.88946C1678.75 -39.4145 1594.98 -29.606 1536.04 -20.6381C1534.95 -20.4719 1533.93 -21.2225 1533.76 -22.3145C1533.6 -23.4065 1534.35 -24.4264 1535.44 -24.5926ZM1466.45 -13.6759C1496.09 -18.1858 1549.68 -21.9866 1608.88 -18.8377C1668.07 -15.6897 1733.01 -5.58911 1785.27 17.7894C1849.72 46.6226 1917.41 32.7016 1948.51 13.1692C1949.21 12.7286 1950.14 12.9401 1950.58 13.6416C1951.02 14.3432 1950.8 15.2691 1950.1 15.7097C1918.19 35.7503 1849.45 49.7885 1784.04 20.5278C1732.27 -2.63365 1667.75 -12.7024 1608.72 -15.842C1549.71 -18.9807 1496.32 -15.1873 1466.9 -10.7101C1466.08 -10.5855 1465.31 -11.1484 1465.19 -11.9674C1465.06 -12.7864 1465.63 -13.5513 1466.45 -13.6759Z" fill="url(#paint1_linear)"/>
<path fill-rule="evenodd" clip-rule="evenodd" d="M227.212 10.7611C227.22 11.0648 227.322 11.3585 227.505 11.6014C227.688 11.8442 227.941 12.0241 228.231 12.116C232.376 14.0963 236.904 15.1433 241.497 15.1832C247.638 15.131 253.622 13.2355 258.674 9.74226C262.266 7.33601 266.452 5.96724 270.772 5.78654C275.091 5.60585 279.377 6.62024 283.158 8.71809C281.376 10.2881 279.072 11.1365 276.698 11.0972H275.167V14.6711H276.698C283.699 14.6711 286.779 9.93578 287.215 9.26577L287.238 9.23017C287.398 8.97606 287.46 8.6731 287.414 8.3767V-12.8803C287.395 -13.1828 287.308 -13.4771 287.16 -13.7419C287.013 -14.0067 286.808 -14.2353 286.561 -14.4112C277.722 -20.5296 265.304 -20.5296 256.465 -14.4112C248.128 -8.79425 238.606 -7.94611 229.591 -12.1975C229.206 -12.3919 228.761 -12.4294 228.349 -12.302C227.937 -12.1747 227.591 -11.8924 227.383 -11.5147C227.141 -11.1447 227.042 -10.6996 227.104 -10.262C227.166 -9.82449 227.384 -9.42423 227.719 -9.13564L239.284 0.898077L227.89 9.23017C227.611 9.36065 227.389 9.5875 227.264 9.86886C227.14 10.1502 227.121 10.4671 227.212 10.7611ZM243.215 2.25831C243.425 2.09912 243.595 1.89347 243.712 1.65748C243.83 1.4215 243.891 1.16158 243.891 0.898077C243.891 0.634577 243.83 0.374649 243.712 0.138662C243.595 -0.0973261 243.425 -0.302965 243.215 -0.462158L236.408 -6.24448C244.063 -4.88425 251.718 -6.7779 258.519 -11.344C262.251 -13.8404 266.62 -15.217 271.11 -15.3115C275.599 -15.4061 280.022 -14.2145 283.856 -11.8774V5.12813C275.354 0.700707 264.472 1.39416 256.481 6.82976C249.013 11.9293 240.66 12.9535 232.477 10.2277L243.194 2.2263L243.215 2.25831ZM268.867 8.03595V18.0643C270.209 17.7519 271.606 17.7519 272.948 18.0643V8.03595C271.618 7.62864 270.197 7.62864 268.867 8.03595ZM272.946 -0.631845H268.866V-4.54184H264.961V-8.62788H268.866V-12.3672H272.946V-8.62788H276.691V-4.54184H272.946V-0.631845ZM358.939 142.973L358.939 142.973L358.939 142.973L358.939 142.973L358.939 142.973L358.939 142.973L358.939 142.973L358.939 142.972L358.939 142.972L358.939 142.972L358.94 142.972L358.94 142.972L358.94 142.972C359.569 142.215 360.199 141.458 360.874 140.702C361.102 140.437 361.33 140.172 361.559 139.907L361.567 139.898C366.617 134.042 371.749 128.091 375.324 120.634C378.386 114.004 379.592 107.203 378.727 100.898C377.995 95.5907 375.903 90.563 372.655 86.3022C369.407 82.0414 365.114 78.6921 360.191 76.5789C361.878 73.831 362.598 70.5974 362.234 67.3933C362.186 67.0313 362.031 66.6919 361.789 66.419C361.546 66.146 361.228 65.9521 360.874 65.8624C360.516 65.777 360.142 65.781 359.786 65.874C359.429 65.967 359.101 66.1462 358.831 66.3958C357.851 67.3922 356.617 68.1006 355.262 68.4442C353.846 68.7273 352.383 68.667 350.995 68.2681L350.653 68.0974C346.457 66.5569 342.027 65.752 337.558 65.7184C335.735 65.7184 334.065 65.8759 332.25 66.0471L332.117 66.0597V65.7184C332.154 64.3824 331.922 63.0525 331.434 61.8083C331.332 61.537 331.172 61.2906 330.967 61.0855C330.762 60.8804 330.516 60.7213 330.244 60.6188C329.966 60.5175 329.669 60.4801 329.374 60.5097C329.079 60.5393 328.795 60.6349 328.543 60.7895C327.773 61.249 326.89 61.4837 325.993 61.467H325.316C324.358 61.3344 323.391 61.2791 322.424 61.3016C321.059 61.3285 319.696 61.4408 318.344 61.6377C317.021 61.8221 315.714 62.1056 314.434 62.4858C313.154 62.8377 311.906 63.2926 310.7 63.846C309.513 64.3706 308.375 64.997 307.297 65.7184C306.544 66.1468 305.86 66.6457 305.2 67.1273L305.2 67.1274C304.816 67.4072 304.44 67.6812 304.064 67.9321C303.021 68.7473 302.055 69.6562 301.178 70.6472C300.923 70.9912 300.622 71.2918 300.321 71.5921L300.32 71.5922L300.32 71.5923L300.32 71.5924L300.32 71.5925L300.32 71.5926L300.32 71.5926L300.32 71.5927L300.32 71.5928L300.32 71.5929L300.32 71.593L300.32 71.5931L300.319 71.5932C300.023 71.8886 299.728 72.1837 299.477 72.5195C298.964 73.1594 298.509 73.843 298.116 74.5625C297.884 74.9354 297.651 75.3211 297.414 75.7129C296.788 76.7505 296.135 77.8309 295.396 78.8299C295.311 78.9146 295.268 78.9993 295.226 79.0833C295.183 79.1687 295.14 79.2534 295.054 79.3367L294.884 79.5074L294.713 79.6781C294.542 79.8488 294.416 80.0195 294.289 80.1901C294.162 80.3608 294.036 80.5316 293.865 80.7023C293.697 80.8697 293.531 81.0769 293.365 81.2849L293.364 81.285C293.191 81.5011 293.017 81.7179 292.841 81.8918C292.29 82.4213 291.778 82.99 291.31 83.5934L290.632 84.2709C290.459 84.4446 290.242 84.6183 290.026 84.7913L290.026 84.7914L290.026 84.7915L290.026 84.7916L290.026 84.7918L290.026 84.7919L290.025 84.792L290.025 84.7921L290.025 84.7922L290.025 84.7923L290.025 84.7925L290.025 84.7927C289.817 84.9593 289.61 85.1251 289.443 85.2897L289.101 85.6311L283.148 81.5504L282.3 75.9388C282.431 75.6799 282.585 75.4452 282.736 75.2159L282.736 75.2156L282.737 75.2155C282.981 74.8448 283.216 74.4882 283.324 74.0665L283.49 73.7304L284.023 72.7062L284.189 72.3702C284.267 72.2179 284.311 72.0667 284.35 71.9303C284.399 71.7608 284.441 71.6142 284.535 71.5167C284.535 71.4313 284.577 71.3887 284.618 71.346C284.659 71.3033 284.701 71.2606 284.701 71.1753C284.718 71.0473 284.778 70.9289 284.871 70.8392L286.573 70.4978L287.939 60.9709L286.232 60.6348C286.232 60.2934 286.232 59.952 286.061 59.7867C286.061 59.6126 286.018 59.3983 285.975 59.1848C285.933 58.9729 285.89 58.7618 285.89 58.5918C285.6 57.4798 285.202 56.3989 284.701 55.3646V55.1459C283.207 52.3192 280.728 50.1385 277.734 49.0168H277.563C277.579 48.887 277.642 48.7674 277.739 48.6808C277.739 48.6101 277.768 48.5394 277.801 48.4565C277.848 48.3394 277.905 48.198 277.905 47.998C279.018 45.4174 281.005 43.3116 283.516 42.0503C283.708 42.6307 283.934 43.1989 284.194 43.7519C284.336 44.1258 284.595 44.4438 284.932 44.6582C285.27 44.8727 285.668 44.972 286.066 44.9415C286.574 44.9495 287.064 44.758 287.432 44.408C288.085 43.8694 288.656 43.2387 289.128 42.5357C290.226 40.7377 290.876 38.7026 291.025 36.6012C291.173 34.4999 290.816 32.3935 289.982 30.459C288.621 27.2318 285.896 25.1887 282.514 25.0234C281.419 25.0556 280.333 25.2351 279.286 25.5568C277.921 22.3189 274.352 20.2813 270.778 20.2813C267.204 20.2813 263.636 22.4896 262.275 25.5568C261.272 25.0722 260.149 24.8871 259.043 25.0234C255.816 25.1887 253.095 27.2318 251.575 30.459C250.742 32.3934 250.384 34.4993 250.531 36.6004C250.679 38.7016 251.327 40.7368 252.423 42.5357C252.898 43.2376 253.471 43.8681 254.125 44.408C254.506 44.7318 254.985 44.9194 255.485 44.9415C256.333 44.9415 257.016 44.7708 257.357 43.7519C257.527 43.1639 257.754 42.594 258.035 42.0503C260.509 43.3613 262.481 45.4519 263.646 47.998C263.646 48.0716 263.676 48.1433 263.711 48.2267C263.759 48.343 263.817 48.4821 263.817 48.6808C263.831 48.8098 263.892 48.9293 263.988 49.0168H263.817C260.584 50.0463 258.376 52.2494 256.845 55.1459V55.3166C256.3 56.3316 255.9 57.4179 255.656 58.5438C255.515 58.9256 255.457 59.3328 255.485 59.7387C255.528 60.0326 255.468 60.3325 255.314 60.5868L253.613 60.9229L254.973 70.4498L256.675 70.7912V70.7913C256.675 70.9566 256.675 71.1273 256.845 71.1273C256.845 71.2126 256.888 71.2553 256.931 71.298C256.973 71.3407 257.016 71.3833 257.016 71.4687C257.091 71.6184 257.133 71.768 257.171 71.9033C257.219 72.0766 257.261 72.2263 257.357 72.3222L257.528 72.6582C257.693 72.9996 257.864 73.341 258.035 73.6824L258.205 74.0184C258.541 74.6793 258.939 75.3063 259.395 75.8908L258.547 81.5024L252.594 85.5831C251.398 84.6992 250.314 83.6728 249.367 82.5266L248.833 81.9931C248.16 81.2982 247.534 80.5586 246.961 79.7794V79.6087L246.79 79.438L246.619 79.2673C246.533 79.184 246.491 79.0993 246.448 79.014C246.405 78.93 246.363 78.8453 246.278 78.7606C246.046 78.3876 245.813 78.0019 245.576 77.61C244.949 76.5725 244.297 75.4921 243.558 74.4932C243.275 74.1348 243.054 73.775 242.833 73.4145L242.833 73.4144L242.833 73.4143L242.833 73.4143L242.833 73.4142L242.833 73.4141L242.833 73.4141L242.833 73.414L242.833 73.4139L242.833 73.4139L242.833 73.4138L242.833 73.4137L242.833 73.4136C242.636 73.0928 242.438 72.7715 242.197 72.4502C241.678 71.7843 241.109 71.1584 240.496 70.5779C239.618 69.5855 238.65 68.6766 237.605 67.8627C236.599 67.0255 235.516 66.2843 234.372 65.649C232.176 64.2065 229.768 63.1158 227.235 62.4165C225.948 62.055 224.64 61.7718 223.319 61.5683C221.968 61.3714 220.605 61.2592 219.239 61.2323C218.272 61.214 217.306 61.2693 216.348 61.3976H215.67C214.774 61.4143 213.89 61.1797 213.12 60.7202C212.87 60.5614 212.585 60.4633 212.29 60.4337C211.994 60.4041 211.696 60.4437 211.419 60.5495C211.148 60.6528 210.902 60.8122 210.697 61.0172C210.492 61.2222 210.333 61.4682 210.229 61.739C209.837 63.0081 209.607 64.322 209.546 65.649V65.9904C203.092 64.9074 196.466 65.5534 190.343 67.8627L190.002 68.0281C188.629 68.5132 187.142 68.5727 185.734 68.1988C184.363 67.9038 183.117 67.192 182.166 66.1611C181.896 65.9107 181.568 65.731 181.211 65.6379C180.855 65.5448 180.481 65.5413 180.123 65.6277C179.783 65.7429 179.478 65.9447 179.24 66.2131C179.001 66.4815 178.837 66.8074 178.762 67.1586C178.398 70.3621 179.115 73.5955 180.8 76.3442C175.878 78.4563 171.585 81.8048 168.338 86.0648C165.091 90.3248 163.001 95.3516 162.269 100.658C161.416 106.957 162.605 113.753 165.667 120.394C169.236 128.044 174.682 134.338 180.123 140.462L180.123 140.462C181.483 141.993 182.843 143.524 184.033 145.049C184.438 145.601 184.893 146.113 185.393 146.58C188.626 150.314 192.37 154.747 192.37 158.849C192.37 163.266 189.644 165.992 185.222 165.992C184.289 165.996 183.364 165.814 182.502 165.458C182.181 165.319 181.831 165.26 181.483 165.287C181.483 165.287 177.749 164.754 176.719 168.179C176.371 168.151 176.021 168.21 175.701 168.349C174.813 168.553 174.036 169.089 173.53 169.846C173.025 170.604 172.828 171.526 172.98 172.425V172.601C174.34 183.653 183.862 192.497 194.92 192.497H195.261C200.281 192.473 205.141 190.732 209.034 187.563L209.205 187.734C209.537 188.127 209.954 188.438 210.424 188.644C210.895 188.85 211.407 188.946 211.92 188.923C212.714 188.96 213.496 188.721 214.134 188.246C217.172 186.128 219.676 183.332 221.447 180.079C221.661 179.848 221.783 179.546 221.789 179.231C221.875 179.318 221.918 179.447 221.961 179.577C222.002 179.702 222.043 179.827 222.125 179.914C222.334 180.241 222.487 180.486 222.648 180.744L222.649 180.744C222.75 180.906 222.855 181.073 222.978 181.269C232.841 196.578 251.036 205.929 270.592 205.929C290.147 205.929 308.347 196.407 318.21 181.269C318.532 180.843 318.816 180.39 319.059 179.914C319.142 179.828 319.185 179.698 319.227 179.57C319.27 179.437 319.313 179.307 319.4 179.231C319.446 179.324 319.493 179.404 319.536 179.478C319.651 179.676 319.741 179.831 319.741 180.079C321.513 183.332 324.017 186.128 327.055 188.246C327.701 188.7 328.474 188.937 329.263 188.923C329.777 188.946 330.29 188.851 330.761 188.644C331.233 188.438 331.651 188.127 331.983 187.734L332.154 187.563C336.101 190.636 340.927 192.365 345.927 192.497H346.269C357.321 192.497 366.848 183.824 368.203 172.601V172.499C368.285 171.611 368.059 170.722 367.564 169.98C367.069 169.238 366.334 168.689 365.482 168.424C365.162 168.284 364.812 168.226 364.464 168.253C363.445 164.85 359.7 165.362 359.7 165.362C359.353 165.336 359.006 165.394 358.687 165.533C357.818 165.874 356.894 166.055 355.961 166.066C351.539 166.066 348.818 163.34 348.818 158.924C348.818 154.843 352.552 150.389 355.79 146.655C356.23 146.241 356.628 145.785 356.98 145.295H356.958C357.649 144.523 358.293 143.749 358.938 142.974L358.938 142.974L358.938 142.974L358.938 142.974L358.938 142.974L358.938 142.974L358.938 142.973L358.939 142.973ZM337.755 69.4523C341.774 69.4107 345.762 70.163 349.49 71.666L349.826 71.8314C351.909 72.538 354.146 72.6561 356.292 72.1728C356.996 72.0219 357.681 71.7929 358.335 71.49C358.014 72.8874 357.437 74.2132 356.633 75.4C356.633 75.4 351.709 74.3492 348.973 74.3492C344.225 74.3427 339.556 75.5594 335.415 77.8821C331.274 80.2048 327.801 83.5551 325.332 87.6101C325.026 86.7332 324.446 85.9782 323.677 85.4574C322.908 84.9365 321.992 84.6776 321.064 84.7189H309.862C312.848 80.028 316.969 76.1665 321.844 73.4922C326.718 70.8179 332.189 69.4174 337.75 69.4203L337.755 69.4523ZM341.654 117.023C341.729 117.171 341.771 117.321 341.81 117.456C341.858 117.629 341.9 117.779 341.996 117.871C341.996 117.871 344.716 125.339 353.054 125.014H353.39C349.459 129.025 344.771 132.166 340.075 135.312L340.075 135.312C334.818 138.834 329.552 142.362 325.332 147.124V116.538C325.453 116.415 325.574 116.311 325.688 116.214L325.688 116.214L325.689 116.214L325.689 116.214C325.891 116.041 326.071 115.889 326.18 115.684C327.056 114.74 327.91 113.769 328.768 112.791C330.072 111.307 331.387 109.809 332.816 108.371C336.384 104.968 340.283 101.911 345.399 101.228C347.437 100.887 349.48 100.887 351.347 101.911C352.301 102.525 353.114 103.334 353.731 104.285C353.731 104.285 355.427 107.688 352.712 110.409C352.542 110.585 352.366 110.755 352.179 110.755C351.346 111.266 350.422 111.612 349.458 111.774C348.829 111.81 348.198 111.753 347.586 111.604C346.885 111.324 346.13 111.208 345.378 111.262C344.801 111.316 344.243 111.496 343.744 111.789C343.244 112.082 342.815 112.481 342.487 112.958C342.029 113.522 341.713 114.187 341.564 114.898C341.416 115.609 341.439 116.345 341.633 117.044L341.654 117.023ZM284.151 66.8759L284.494 63.5191C284.168 63.3971 283.784 63.2838 283.411 63.1736C283.199 63.1108 282.989 63.049 282.796 62.9872C282.521 62.9252 282.264 62.8655 282.013 62.8072L282.011 62.8067L282.01 62.8066C281.485 62.6846 280.989 62.5692 280.412 62.4538V67.5533L282.284 67.2173L284.151 66.8759ZM270.89 73.5117L270.912 73.5073L270.933 73.5117H270.89ZM270.912 73.5073L280.764 71.4687C280.373 72.2434 279.918 72.9839 279.404 73.6824C279.19 73.999 278.979 74.3176 278.768 74.6371C278.64 74.829 278.513 75.0211 278.385 75.2133C276.513 77.5924 273.963 79.2887 270.917 79.2887C267.871 79.2887 265.305 77.4217 263.449 75.2133C263.172 74.7811 262.899 74.3769 262.624 73.9695L262.623 73.9688L262.623 73.9687L262.623 73.9686L262.623 73.9685L262.623 73.9683L262.623 73.9682L262.623 73.9681L262.62 73.9631C262.557 73.8698 262.493 73.7764 262.43 73.6824C262.154 73.3288 261.936 72.9308 261.72 72.5345L261.72 72.5343C261.518 72.1654 261.317 71.7978 261.07 71.4687L270.912 73.5073ZM265.108 68.4121V61.6056C265.604 61.4968 266.082 61.3868 266.536 61.2822L266.538 61.2819L266.538 61.2818L266.539 61.2816C267.486 61.0636 268.331 60.8692 269.023 60.7575V69.255L265.108 68.4121ZM272.763 69.255V60.7575C273.35 60.8523 274.048 61.0139 274.825 61.1938L274.826 61.1939L274.826 61.1939L274.827 61.1941L274.829 61.1946C275.406 61.3281 276.026 61.4717 276.678 61.6056V68.4121L272.763 69.255ZM260.014 38.135C260.862 36.9454 261.71 35.9266 262.905 35.4145C262.905 35.4145 259.331 35.4145 255.437 38.9884C254.935 37.8076 254.676 36.5376 254.676 35.2545C254.676 33.9713 254.935 32.7013 255.437 31.5205C256.283 29.6535 257.644 28.6329 259.518 28.4586C260.882 28.4956 262.219 28.8441 263.428 29.4775C264.888 30.282 266.169 31.3756 267.193 32.6917C268.216 34.0078 268.961 35.5187 269.381 37.1321C269.381 37.1321 270.234 32.8647 266.831 28.4586C266.658 28.2881 266.486 28.0723 266.314 27.8564L266.314 27.8563C266.147 27.6468 265.98 27.4372 265.812 27.2691C266.198 26.2124 266.888 25.2938 267.796 24.6292C268.704 23.9646 269.788 23.5839 270.912 23.5351C273.291 23.5351 275.504 25.0661 276.011 27.2691C275.633 27.6308 275.292 28.0293 274.992 28.4586C271.792 32.8807 272.443 37.1321 272.443 37.1321C272.803 35.4936 273.524 33.9562 274.554 32.6319C275.584 31.3076 276.896 30.23 278.396 29.4775C279.604 28.8448 280.942 28.4964 282.306 28.4586C283.199 28.5546 284.05 28.8896 284.769 29.4285C285.488 29.9673 286.049 30.69 286.392 31.5205C286.894 32.7013 287.152 33.9713 287.152 35.2545C287.152 36.5376 286.894 37.8076 286.392 38.9884C282.476 35.4145 278.924 35.4145 278.924 35.4145C280.044 36.1409 281.025 37.0623 281.82 38.135C278.58 39.7788 275.998 42.4792 274.502 45.7896C274.421 45.8727 274.38 46.0014 274.339 46.1287C274.296 46.263 274.253 46.3958 274.165 46.4724C274.165 46.5577 274.123 46.6417 274.08 46.7258C274.037 46.8098 273.995 46.8938 273.995 46.9791L270.933 45.4535C269.948 46.0299 268.925 46.5396 267.871 46.9791C267.871 46.8938 267.828 46.8098 267.786 46.7258C267.743 46.6417 267.7 46.5577 267.7 46.4724C267.616 46.3883 267.574 46.2576 267.532 46.1288C267.488 45.9961 267.446 45.8654 267.359 45.7896C265.812 42.5166 263.249 39.8315 260.051 38.135H260.014ZM265.625 51.9133C266.077 51.7343 266.577 51.5947 267.075 51.4557C267.512 51.3337 267.947 51.2123 268.346 51.0652C269.229 50.6749 270.081 50.2184 270.896 49.6996C271.711 50.2173 272.563 50.6738 273.445 51.0652C274.327 51.422 275.237 51.7057 276.166 51.9133C279.398 53.1029 281.441 55.6473 282.29 58.8852L279.402 58.1754C271.781 56.3023 271.222 56.1647 271.088 56.1647C270.917 56.1647 270.069 56.3354 259.886 58.8852C260.14 57.3128 260.81 55.8371 261.827 54.6111C262.843 53.3852 264.17 52.4537 265.668 51.9133H265.625ZM257.624 66.8759L257.117 63.478C257.722 63.2821 258.35 63.1673 258.984 63.1366C259.562 63.0211 260.058 62.9057 260.583 62.7836L260.586 62.7831C260.836 62.7249 261.093 62.6651 261.369 62.6032V67.708L259.496 67.3613L257.624 66.8546V66.8759ZM262.425 79.8008L262.596 79.9715C264.775 82.1157 267.699 83.335 270.757 83.3747C273.989 83.3747 276.539 82.0145 278.918 79.9715L279.265 79.6301L279.942 83.0333L286.408 87.4501L285.383 87.9835C282.617 89.5434 279.638 90.69 276.539 91.3867C274.715 91.9203 272.828 92.2073 270.928 92.2402C269.265 92.1928 267.612 91.9639 265.999 91.5574C262.838 90.8878 259.798 89.7402 256.984 88.1542C256.495 87.9324 256.038 87.6472 255.624 87.3061L261.913 83.2254L261.891 83.204L262.425 79.8008ZM184.865 72.1515C187.008 72.6346 189.244 72.5165 191.325 71.8101L191.666 71.6447C195.398 70.1564 199.383 69.4046 203.401 69.431C208.942 69.4326 214.395 70.8176 219.265 73.4603C224.135 76.103 228.268 79.9197 231.289 84.5642H219.895C218.968 84.5216 218.051 84.7795 217.283 85.2994C216.514 85.8194 215.933 86.5737 215.627 87.4501C213.13 83.4217 209.652 80.0924 205.519 77.7733C201.385 75.4542 196.731 74.221 191.991 74.1891C189.266 74.1891 184.337 75.2133 184.337 75.2133C183.531 74.0253 182.954 72.6975 182.635 71.298C183.329 71.6864 184.074 71.9738 184.849 72.1515H184.865ZM220.407 170.302C220.451 170.596 220.391 170.896 220.236 171.15V171.32C220.236 171.488 220.194 171.656 220.151 171.826C220.109 171.997 220.066 172.168 220.066 172.339C219.793 173.813 219.336 175.247 218.705 176.607V176.777C218.621 176.861 218.579 176.992 218.537 177.121C218.493 177.254 218.451 177.384 218.364 177.46C218.364 177.626 218.193 177.796 218.023 177.967C216.493 180.792 214.343 183.234 211.733 185.109C214.229 181.639 215.594 177.483 215.643 173.209C215.623 171.252 215.337 169.307 214.795 167.426C214.437 171.619 213.162 175.681 211.061 179.327C209.429 182.136 207.097 184.474 204.293 186.114C201.488 187.753 198.307 188.639 195.059 188.683H194.883C186.038 188.683 177.872 181.365 176.853 172.185L177.024 172.355C178.254 174.252 179.943 175.808 181.935 176.878C183.927 177.949 186.156 178.499 188.417 178.479C191.883 178.487 195.221 177.171 197.749 174.801C200.277 172.43 201.805 169.184 202.02 165.725C200.876 168.595 198.782 170.986 196.088 172.499L195.917 172.675C195.59 172.804 195.289 172.96 194.993 173.112C194.518 173.357 194.059 173.594 193.533 173.7C189.964 174.862 183.681 175.7 180.101 168.765C180.353 168.765 180.508 168.855 180.709 168.97C180.781 169.012 180.859 169.056 180.95 169.101C181.279 169.184 181.569 169.311 181.857 169.437C182.165 169.573 182.471 169.707 182.822 169.784C183.494 169.921 184.18 169.977 184.865 169.95H186.737C187.085 169.975 187.434 169.919 187.756 169.784C187.995 169.809 188.235 169.748 188.433 169.613C189.398 169.452 190.321 169.106 191.154 168.595C192.775 167.651 194.122 166.302 195.064 164.679C195.579 163.848 195.927 162.924 196.088 161.959C196.286 160.951 196.4 159.929 196.43 158.902C196.43 153.064 191.753 147.822 187.955 143.566C187.655 143.229 187.36 142.898 187.073 142.574C185.827 141.095 184.547 139.628 183.263 138.156C178.065 132.198 172.8 126.162 169.39 118.933C166.835 113.492 165.475 107.373 166.328 101.42C168.03 88.3302 178.912 78.1258 192.178 78.1258C196.391 78.1404 200.526 79.2636 204.168 81.3826C207.809 83.5015 210.829 86.5416 212.923 90.1972L212.955 90.2601C213.39 91.1206 215.643 95.573 215.643 99.2121V110.089C215.347 109.758 215.055 109.428 214.764 109.101L214.751 109.087L214.749 109.084L214.749 109.084C212.21 106.225 209.83 103.546 206.629 101.415C201.529 97.6812 193.874 95.1207 187.921 98.3586C186.715 99.0524 185.664 99.9863 184.834 101.102C184.003 102.219 183.41 103.493 183.092 104.848C182.773 106.202 182.736 107.607 182.982 108.977C183.228 110.346 183.753 111.651 184.523 112.809C184.523 112.809 187.756 117.909 194.728 116.036C194.728 116.036 192.514 123.013 184.353 119.952C183.738 119.774 183.161 119.485 182.651 119.098C181.669 118.398 180.757 117.603 179.931 116.724C179.752 116.445 179.528 116.178 179.306 115.913C179.104 115.672 178.904 115.432 178.741 115.188C178.462 114.831 178.242 114.429 178.022 114.029C177.822 113.664 177.623 113.3 177.381 112.974C176.888 112.013 176.543 110.982 176.357 109.918C175.778 106.734 176.258 103.448 177.722 100.562C178.894 98.3701 180.487 96.4312 182.409 94.8559C184.331 93.2806 186.545 92.0999 188.924 91.3814C193.853 90.0212 200.126 90.704 204.57 93.2537C205.258 93.6093 205.889 94.066 206.442 94.6086C207.032 94.9658 207.551 95.4287 207.973 95.9742C205.418 90.704 198.787 87.8128 193.341 87.6368C186.881 86.9593 180.587 90.0212 176.677 95.1047C174.859 97.4046 173.554 100.067 172.851 102.912C172.147 105.758 172.06 108.722 172.596 111.604C173.72 117.545 178.186 122.735 182.118 127.303C182.347 127.569 182.575 127.834 182.801 128.097C183.181 128.55 183.563 129.004 183.944 129.457L183.949 129.464C190.721 137.515 197.548 145.631 202.697 154.966C204.728 158.735 205.78 162.953 205.759 167.234C205.768 171.405 204.162 175.416 201.278 178.429C198.395 181.441 194.456 183.22 190.29 183.392C193.389 183.805 196.542 183.455 199.475 182.373C202.978 180.839 205.897 178.221 207.802 174.905C214.878 161.74 204.268 148.425 196.348 138.486L196.345 138.482L196.334 138.468C196.073 138.14 195.814 137.816 195.56 137.496C195.027 136.813 192.498 133.922 191.293 132.562L200.644 139.363C202.516 140.723 204.378 142.089 206.261 143.63C209.039 145.813 211.546 148.32 213.728 151.098C217.644 155.862 220.871 162.999 220.364 170.302H220.407ZM187.415 125.025H187.948C196.285 125.195 199.001 117.882 199.001 117.882C199.079 117.73 199.122 117.58 199.161 117.444C199.21 117.275 199.252 117.129 199.347 117.034C199.595 116.352 199.662 115.617 199.542 114.901C199.422 114.185 199.12 113.513 198.665 112.948C197.919 112.073 196.901 111.475 195.773 111.251C195.019 111.197 194.262 111.314 193.56 111.593C192.949 111.742 192.32 111.8 191.693 111.764C190.742 111.764 189.935 111.299 189.142 110.842C189.085 110.81 189.029 110.777 188.972 110.745C188.886 110.658 188.799 110.615 188.709 110.571C188.623 110.529 188.533 110.485 188.439 110.398C185.718 107.848 187.42 104.274 187.42 104.274C187.888 103.213 188.737 102.366 189.799 101.901C191.501 100.876 193.714 100.876 195.752 101.218C200.852 101.901 204.767 104.786 208.336 108.36C209.773 109.801 211.088 111.303 212.391 112.79C213.244 113.764 214.092 114.732 214.966 115.674C215.078 115.782 215.271 115.976 215.481 116.187L215.482 116.188L215.491 116.197L215.639 116.346L215.819 116.527V147.135C211.564 142.627 206.469 139.223 201.368 135.816C196.475 132.548 191.578 129.277 187.415 125.025ZM316.829 170.43V170.6C316.994 171.795 317.165 172.979 317.336 174.004C316.703 175.477 315.965 176.904 315.127 178.271C315.055 178.414 314.948 178.588 314.838 178.767C314.688 179.011 314.533 179.264 314.45 179.46C305.776 193.068 289.277 202.248 270.57 202.248C251.863 202.248 235.54 193.063 226.696 179.434C226.621 179.283 226.508 179.1 226.393 178.912L226.393 178.912L226.393 178.912L226.393 178.911C226.248 178.674 226.099 178.432 226.019 178.244C225.367 177.206 224.818 176.067 224.29 174.974C224.127 174.636 223.966 174.302 223.805 173.977L223.813 173.919C223.981 172.749 224.149 171.576 224.338 170.574V170.403C224.668 164.325 223.183 158.287 220.071 153.056V88.4743H238.266L235.971 84.7114C235.974 84.713 235.978 84.7145 235.981 84.716L235.987 84.7186C236.008 84.7266 236.03 84.7303 236.052 84.7296C233.673 80.4197 230.465 76.6236 226.611 73.5602C222.758 70.4968 218.336 68.2268 213.6 66.8812C213.6 66.7139 213.558 66.5028 213.516 66.291C213.473 66.0774 213.43 65.8631 213.43 65.6917V65.0142C214.434 65.2364 215.469 65.2923 216.492 65.1796C217.024 65.1796 217.465 65.1344 217.886 65.0912L217.886 65.0912C218.27 65.0519 218.637 65.0142 219.041 65.0142H219.724C221.09 65.0414 222.453 65.1536 223.805 65.3503C224.669 65.4587 225.466 65.7048 226.28 65.9561C226.747 66.1005 227.221 66.2465 227.715 66.3691C228.938 66.8663 230.132 67.4344 231.289 68.0708C232.429 68.7124 233.511 69.4532 234.521 70.2845C235.54 71.1326 236.559 71.9861 237.407 72.8342C238.399 73.7914 239.258 74.8767 239.962 76.0615C240.81 77.427 241.659 78.7873 242.683 80.3288C243.551 81.7446 244.578 83.0564 245.745 84.2389C246.494 85.0757 247.289 85.8717 248.124 86.6233C248.294 86.7913 248.508 86.9606 248.721 87.1299L248.721 87.13L248.721 87.1301C248.935 87.2995 249.148 87.4688 249.319 87.6368L249.484 87.8128C249.651 87.9774 249.858 88.1432 250.066 88.3098C250.282 88.4832 250.499 88.6574 250.673 88.8316C250.696 88.8309 250.718 88.8347 250.738 88.8427C250.759 88.8507 250.778 88.8627 250.794 88.8782C250.81 88.8936 250.822 88.9121 250.831 88.9325C250.84 88.9529 250.844 88.9748 250.844 88.997C251.198 89.3371 251.598 89.6245 252.034 89.8505C252.056 89.8497 252.079 89.8536 252.1 89.862C252.121 89.8703 252.14 89.8828 252.156 89.8988L252.16 89.9026L252.165 89.909C252.168 89.912 252.17 89.9151 252.173 89.9183L252.174 89.9204C252.177 89.925 252.18 89.9297 252.183 89.9345C252.187 89.9411 252.19 89.9479 252.193 89.955C252.201 89.976 252.205 89.9986 252.204 90.0212C252.59 90.401 253.054 90.6906 253.565 90.8693H253.735C255.536 92.069 257.478 93.0418 259.518 93.7658C259.688 93.7658 259.688 93.7658 259.859 93.9312C260.169 94.1203 260.517 94.2371 260.878 94.2726C261.759 94.6326 262.669 94.9163 263.598 95.1207C266.039 95.7776 268.542 96.1763 271.066 96.3103C273.599 96.2613 276.112 95.861 278.534 95.1207C279.465 94.9163 280.377 94.6326 281.26 94.2726C281.429 94.1869 281.599 94.1442 281.769 94.1014L281.77 94.1014C281.939 94.0589 282.109 94.0162 282.279 93.9312C282.352 93.9312 282.394 93.9312 282.431 93.9182C282.481 93.9009 282.523 93.8605 282.62 93.766L282.62 93.7659L282.62 93.7658C284.629 92.9719 286.564 92.0026 288.403 90.8693H288.573C288.823 90.704 289.032 90.5787 289.241 90.4534L289.241 90.4533C289.457 90.324 289.673 90.1946 289.934 90.0212C289.938 90.0213 289.942 90.0213 289.947 90.0211L289.953 90.0207C289.958 90.0202 289.963 90.0196 289.968 90.0188L289.972 90.0179L289.98 90.016L289.988 90.0138C289.992 90.0126 289.996 90.0112 290 90.0097C290.021 90.0014 290.04 89.9888 290.056 89.9728C290.072 89.9568 290.084 89.9377 290.093 89.9167C290.101 89.8956 290.105 89.8731 290.104 89.8505C290.459 89.5145 290.857 89.2275 291.288 88.997C291.288 88.997 291.464 88.997 291.464 88.8316L291.801 88.4903C291.89 88.4903 291.934 88.4476 291.977 88.4056C292.019 88.365 292.061 88.3249 292.142 88.3249C292.313 88.1489 292.483 87.9782 292.675 87.9782L292.841 87.8128C293.137 87.4778 293.482 87.19 293.865 86.9593L294.036 86.794C294.87 86.0411 295.664 85.2452 296.415 84.4095C296.684 84.1401 296.941 83.8394 297.196 83.5417L297.196 83.5415C297.445 83.2499 297.692 82.9613 297.946 82.7079L298.287 82.3719C298.467 82.0865 298.697 81.8133 298.924 81.5433C299.122 81.3087 299.318 81.0766 299.477 80.841L299.818 80.4995C299.904 80.3224 300.037 80.0994 300.169 79.8781C300.292 79.6728 300.413 79.469 300.495 79.3047C300.852 78.7723 301.162 78.2866 301.474 77.7987L301.474 77.798L301.475 77.7974C301.759 77.352 302.045 76.9049 302.368 76.4189C303.216 75.2293 304.064 74.2051 304.917 73.1863C305.757 72.2034 306.73 71.3433 307.809 70.6312C308.844 69.8373 309.924 69.1018 311.041 68.4281C312.196 67.7902 313.388 67.2202 314.61 66.7212C315.861 66.2019 317.179 65.859 318.525 65.7024C319.877 65.5037 321.24 65.3897 322.606 65.361H323.283C324.137 65.3432 324.99 65.4003 325.833 65.5317C326.856 65.6453 327.891 65.5876 328.895 65.361V67.0626C324.02 68.3439 319.456 70.6029 315.481 73.7023C311.55 76.767 308.276 80.5901 305.853 84.9441C305.84 84.9517 305.828 84.9611 305.817 84.9719C305.809 84.9804 305.802 84.9897 305.796 84.9997C305.79 85.0084 305.786 85.0177 305.782 85.0274C305.774 85.0481 305.77 85.0702 305.771 85.0923C305.798 85.0429 305.826 84.9935 305.853 84.9441C305.859 84.9406 305.865 84.9375 305.872 84.9347C305.892 84.9261 305.914 84.9216 305.936 84.9216L303.557 88.8316H321.752V153.44C317.842 158.54 316.482 164.642 316.823 170.44L316.829 170.43ZM344.716 159.036C344.748 160.066 344.862 161.091 345.058 162.103C345.218 163.065 345.564 163.988 346.076 164.818C346.546 165.626 347.118 166.37 347.778 167.032C348.441 167.689 349.182 168.26 349.987 168.733C350.834 169.218 351.755 169.562 352.712 169.752C352.798 169.752 352.937 169.796 353.072 169.839L353.073 169.839C353.199 169.879 353.32 169.918 353.39 169.918C353.739 169.889 354.089 169.95 354.409 170.094H356.281C357.637 170.158 358.985 169.863 360.191 169.24C360.356 169.158 360.486 169.115 360.611 169.074C360.746 169.03 360.876 168.987 361.039 168.899C357.47 175.871 351.181 175.022 347.607 173.833C346.772 173.601 345.972 173.258 345.228 172.814C345.219 172.814 345.21 172.814 345.201 172.813C345.194 172.812 345.187 172.81 345.181 172.809C345.175 172.807 345.168 172.805 345.162 172.803C345.141 172.794 345.122 172.782 345.106 172.766C345.097 172.757 345.09 172.748 345.083 172.738C345.078 172.729 345.073 172.719 345.069 172.71C345.064 172.697 345.061 172.685 345.059 172.672C345.059 172.668 345.058 172.663 345.058 172.659L345.058 172.651L345.058 172.643C342.355 171.123 340.254 168.723 339.105 165.842C339.322 169.301 340.851 172.546 343.38 174.915C345.909 177.284 349.247 178.599 352.712 178.591C354.963 178.579 357.177 178.018 359.161 176.956C361.134 175.901 362.821 174.383 364.078 172.534C362.963 181.62 354.856 188.827 346.076 188.827H345.906C339.105 188.662 332.981 185.093 329.903 179.477C327.804 175.83 326.53 171.768 326.169 167.576C325.625 169.454 325.339 171.397 325.321 173.353C325.339 177.634 326.707 181.801 329.231 185.259C326.619 183.385 324.467 180.943 322.937 178.116C322.937 177.967 322.805 177.817 322.662 177.653C322.641 177.63 322.621 177.607 322.6 177.583C322.52 177.49 322.478 177.368 322.436 177.247C322.391 177.12 322.347 176.993 322.259 176.905V176.735C321.624 175.377 321.167 173.942 320.899 172.467C320.899 172.301 320.857 172.134 320.815 171.966L320.814 171.966L320.814 171.966C320.771 171.795 320.728 171.623 320.728 171.448V171.283C320.773 170.987 320.712 170.685 320.557 170.43C320.024 163.122 323.278 155.974 327.023 151.226C329.294 148.529 331.793 146.03 334.49 143.758C336.363 142.222 338.224 140.862 340.102 139.491L349.458 132.69C348.797 133.577 347.419 135.112 346.389 136.261L346.388 136.262L346.387 136.263C345.832 136.881 345.378 137.387 345.191 137.619C345.058 137.785 344.924 137.953 344.789 138.122L344.466 138.527C336.517 148.479 325.848 161.837 332.922 175.033C334.731 178.43 337.685 181.076 341.26 182.501C344.189 183.592 347.343 183.942 350.44 183.52C346.284 183.32 342.362 181.534 339.484 178.529C336.606 175.524 334.99 171.529 334.971 167.368C334.869 163.077 335.926 158.839 338.032 155.099C343.173 145.781 349.985 137.677 356.74 129.639L356.741 129.639L356.741 129.639L356.741 129.639L356.741 129.639L356.741 129.638L356.741 129.638L356.741 129.638L356.741 129.638L356.741 129.638L356.741 129.638L356.742 129.638L356.762 129.614C357.149 129.152 357.537 128.691 357.924 128.23C358.25 127.85 358.583 127.466 358.92 127.076C362.799 122.596 367.191 117.523 368.128 111.737C368.667 108.855 368.581 105.891 367.877 103.045C367.173 100.199 365.867 97.5367 364.048 95.2381C362.069 92.7573 359.536 90.7756 356.652 89.4526C353.767 88.1295 350.613 87.5021 347.442 87.6208C341.83 87.7968 335.173 90.688 332.821 95.9582C333.187 95.5892 333.453 95.3698 333.702 95.1653C333.913 94.9913 334.111 94.828 334.346 94.5926C335.001 94.1852 335.627 93.7325 336.219 93.2377C340.641 90.688 346.935 90.0052 351.864 91.3654C356.643 92.8648 360.657 96.1543 363.066 100.546C364.508 103.439 364.985 106.718 364.426 109.902C364.242 110.966 363.899 111.997 363.407 112.958C363.054 113.753 362.597 114.498 362.047 115.172C361.704 115.723 361.305 116.238 360.858 116.708C360.03 117.586 359.119 118.381 358.137 119.082C357.627 119.469 357.05 119.758 356.436 119.936C348.269 122.997 346.06 116.02 346.06 116.02C353.038 117.893 356.265 112.793 356.265 112.793C357.033 111.635 357.556 110.332 357.802 108.965C358.048 107.597 358.011 106.194 357.694 104.841C357.376 103.488 356.785 102.214 355.957 101.099C355.129 99.9829 354.081 99.0486 352.878 98.3533C346.93 94.95 339.275 97.6652 334.176 101.41C331.24 103.609 328.812 106.194 326.341 108.825C325.948 109.244 325.553 109.664 325.156 110.083V99.2014C325.156 95.6275 327.54 90.864 327.881 90.1865C329.945 86.5018 332.957 83.4362 336.605 81.308C340.252 79.1797 344.403 78.0663 348.626 78.0831C362.063 78.0831 372.774 88.2876 374.476 101.378C375.324 107.331 373.943 113.449 371.414 118.89C368.003 126.097 362.764 132.11 357.587 138.053L357.586 138.054C356.288 139.545 354.992 141.032 353.731 142.532C353.101 143.382 352.395 144.267 351.663 145.185C348.442 149.224 344.716 153.896 344.716 159.025V159.036ZM277.563 154.8V155.477L283.474 152.031C283.474 152.031 283.815 152.031 283.645 151.695C283.645 151.348 283.308 151.519 283.308 151.519L281.265 152.053L275.99 148.319V144.051C276.331 144.051 276.502 144.051 276.673 144.222C277.004 144.373 277.289 144.61 277.498 144.908C277.708 145.206 277.833 145.555 277.862 145.918V147.113H277.697C277.697 147.113 283.645 149.834 283.986 150.004C284.636 149.146 285.522 148.495 286.536 148.132C286.605 148.064 286.69 148.014 286.782 147.984C286.875 147.954 286.973 147.947 287.069 147.961C287.345 147.832 287.628 147.72 287.917 147.625C288.543 147.499 289.093 147.131 289.448 146.601C288.791 147.037 288.023 147.274 287.234 147.284H286.216C285.699 147.256 285.182 147.314 284.685 147.454C284.007 147.284 284.343 146.26 284.343 146.26H285.197C285.474 146.179 285.758 146.124 286.045 146.094C286.749 145.918 286.216 144.899 286.216 144.899C286.045 144.558 285.218 144.734 284.685 144.899C284.45 144.909 284.219 144.968 284.007 145.07C283.33 144.899 283.154 143.715 283.154 143.368C283.06 143.275 283.019 143.234 283.002 143.185C282.988 143.148 282.988 143.106 282.988 143.032C282.992 142.943 283.03 142.859 283.093 142.795C283.156 142.732 283.241 142.695 283.33 142.691L285.367 141.843C285.538 141.352 286.194 140.989 286.728 140.819H286.898L287.069 139.971C287.15 139.971 287.192 139.929 287.234 139.887C287.277 139.844 287.321 139.8 287.411 139.8H287.747C289.689 139.595 291.637 140.143 293.187 141.331C293.188 141.339 293.187 141.347 293.186 141.355C293.185 141.365 293.183 141.375 293.18 141.385L293.179 141.39L293.176 141.397C293.168 141.418 293.155 141.437 293.139 141.453C293.123 141.469 293.104 141.482 293.083 141.49C293.062 141.498 293.039 141.502 293.017 141.501C293.017 141.331 292.846 141.331 292.681 141.331C293.544 142.024 294.238 142.906 294.709 143.908C295.181 144.91 295.417 146.006 295.401 147.113V147.284V147.454V147.625V147.791V150.004V150.175V150.34V150.511V150.682V150.852C295.261 151.159 295.082 151.446 294.868 151.706C294.73 152.01 294.55 152.294 294.334 152.549C294.317 152.736 294.261 152.918 294.169 153.082C293.734 153.876 293.445 154.741 293.316 155.637H293.145C292.956 155.391 292.839 155.097 292.803 154.789C292.536 155.261 292.364 155.781 292.297 156.32C292.102 157.223 292.161 158.163 292.467 159.035C292.467 159.206 292.467 159.206 292.297 159.206C291.645 158.949 291.063 158.543 290.598 158.019C290.636 159.487 291.11 160.913 291.961 162.113C291.961 162.305 292.126 162.476 292.297 162.646C292.668 163.105 293.134 163.479 293.662 163.743C294.19 164.007 294.768 164.155 295.359 164.177H295.529C296.111 164.181 296.687 164.069 297.225 163.848C297.763 163.627 298.251 163.301 298.662 162.89C299.073 162.478 299.398 161.989 299.619 161.451C299.839 160.913 299.95 160.337 299.946 159.755C299.94 159.044 299.767 158.344 299.439 157.712L298.906 156.693C298.008 154.936 297.598 152.969 297.718 150.999C297.838 149.029 298.484 147.127 299.589 145.491L299.759 145.321L299.925 145.15C299.947 145.151 299.97 145.147 299.992 145.139C300.013 145.13 300.032 145.118 300.049 145.102C300.065 145.086 300.078 145.067 300.087 145.046C300.096 145.025 300.101 145.002 300.101 144.979C300.163 144.917 300.224 144.855 300.284 144.795L300.286 144.793L300.286 144.793L300.287 144.792C300.36 144.718 300.432 144.645 300.505 144.573C300.548 144.53 300.591 144.488 300.634 144.446L301.141 143.939C301.333 143.753 301.498 143.582 301.674 143.406C301.933 143.274 302.163 143.093 302.352 142.872C302.445 142.782 302.564 142.724 302.693 142.707V143.731C302.577 144.587 302.152 145.37 301.498 145.934C301.243 146.15 300.96 146.33 300.655 146.468H300.479C299.619 147.857 299.095 149.428 298.948 151.055C298.778 152.818 299.132 154.593 299.967 156.155L300.501 157.179C300.841 157.986 301.022 158.852 301.034 159.729C301.034 160.488 300.884 161.239 300.591 161.94C300.299 162.641 299.87 163.276 299.33 163.81C298.791 164.344 298.15 164.765 297.447 165.05C296.743 165.335 295.99 165.477 295.23 165.468C294.77 165.496 294.309 165.438 293.87 165.298V165.639C293.721 166.251 293.663 166.882 293.7 167.511C293.717 168.259 293.832 169.001 294.041 169.72C294.722 170.076 295.481 170.259 296.249 170.253C296.709 170.281 297.171 170.223 297.61 170.082C298.045 169.926 298.509 169.866 298.97 169.906C299.043 169.892 299.119 169.895 299.19 169.917C299.261 169.939 299.326 169.978 299.379 170.03C299.432 170.083 299.471 170.148 299.493 170.22C299.514 170.291 299.518 170.367 299.503 170.44C299.062 170.47 298.646 170.659 298.333 170.971C298.02 171.284 297.832 171.7 297.802 172.141C297.808 174.114 297.149 176.032 295.929 177.582H290.488C290.49 177.131 290.669 176.699 290.988 176.381C291.307 176.062 291.739 175.882 292.19 175.881H293.892C294.708 174.91 295.238 173.732 295.423 172.477C294.643 172.679 293.843 172.795 293.038 172.824C292.234 172.808 291.435 172.691 290.659 172.477C290.142 171.43 289.688 170.352 289.299 169.25H290.318C291.069 169.18 291.781 168.885 292.361 168.402C292.453 168.31 292.513 168.19 292.531 168.061C292.443 167.964 292.321 167.903 292.19 167.89C291.469 168.087 290.728 168.201 289.982 168.231H289.299C288.909 168.245 288.521 168.18 288.157 168.039C287.545 167.89 286.914 167.833 286.285 167.869C285.998 167.869 285.704 167.922 285.446 167.969C285.244 168.006 285.063 168.039 284.925 168.039C284.77 168.039 284.644 168.081 284.515 168.123C284.382 168.166 284.247 168.21 284.077 168.21C283.72 168.891 283.537 169.65 283.543 170.418C283.515 170.88 283.573 171.343 283.714 171.784C283.866 172.22 283.924 172.684 283.885 173.144C283.899 173.217 283.896 173.293 283.874 173.364C283.852 173.436 283.813 173.501 283.761 173.554C283.708 173.606 283.643 173.645 283.571 173.667C283.5 173.689 283.424 173.692 283.351 173.678C283.321 173.235 283.132 172.818 282.818 172.504C282.504 172.19 282.087 172.001 281.644 171.971C279.673 171.975 277.757 171.318 276.203 170.104V164.657C276.654 164.659 277.086 164.839 277.405 165.157C277.724 165.476 277.903 165.908 277.905 166.359V168.061C278.876 168.876 280.054 169.406 281.308 169.592C281.111 168.813 280.997 168.015 280.967 167.213C280.984 166.407 281.099 165.606 281.308 164.828C281.382 164.754 281.969 164.52 282.747 164.209C283.762 163.804 285.104 163.268 286.066 162.785C285.896 161.937 285.047 160.918 284.365 160.235C283.419 159.245 282.772 158.008 282.498 156.667L275.867 158.71V153.093C276.318 153.096 276.749 153.277 277.067 153.596C277.385 153.916 277.563 154.349 277.563 154.8ZM250.844 172.314C250.067 172.521 249.268 172.636 248.465 172.655C247.66 172.623 246.861 172.509 246.08 172.314C246.266 173.568 246.796 174.746 247.611 175.717H249.318C249.768 175.719 250.2 175.899 250.518 176.218C250.836 176.536 251.014 176.969 251.014 177.419H245.557C244.343 175.864 243.685 173.946 243.69 171.973C243.659 171.531 243.469 171.116 243.155 170.804C242.841 170.492 242.425 170.305 241.984 170.276C241.967 170.203 241.97 170.127 241.991 170.055C242.012 169.983 242.051 169.917 242.104 169.864C242.158 169.811 242.223 169.772 242.295 169.751C242.367 169.73 242.444 169.727 242.517 169.743C242.977 169.705 243.44 169.761 243.877 169.908C244.315 170.053 244.777 170.112 245.237 170.084C246.007 170.087 246.767 169.904 247.451 169.551C247.658 168.832 247.773 168.09 247.793 167.343C247.83 166.713 247.77 166.082 247.616 165.47V165.129C247.177 165.269 246.716 165.327 246.256 165.299C245.495 165.305 244.741 165.159 244.037 164.871C243.333 164.582 242.693 164.157 242.155 163.619C241.617 163.08 241.191 162.441 240.903 161.737C240.614 161.033 240.468 160.278 240.474 159.517C240.486 158.641 240.667 157.775 241.007 156.967L241.541 155.943C242.378 154.382 242.733 152.607 242.56 150.844C242.414 149.214 241.89 147.642 241.029 146.251H240.858C240.554 146.121 240.269 145.95 240.01 145.744C239.357 145.178 238.934 144.393 238.82 143.536V142.512C238.949 142.531 239.069 142.591 239.162 142.682C239.353 142.9 239.582 143.081 239.839 143.216L240.373 143.749L240.906 144.256C241.077 144.419 241.255 144.597 241.439 144.789C241.439 144.811 241.444 144.833 241.452 144.854C241.461 144.874 241.474 144.893 241.49 144.908C241.506 144.924 241.525 144.936 241.545 144.944C241.566 144.952 241.588 144.955 241.61 144.955L241.781 145.125L241.952 145.296C243.021 146.925 243.665 148.795 243.824 150.737C243.895 152.739 243.443 154.724 242.512 156.498L241.978 157.517C241.644 158.147 241.462 158.847 241.445 159.56C241.44 160.142 241.551 160.72 241.771 161.259C241.992 161.798 242.317 162.288 242.729 162.7C243.14 163.112 243.63 163.438 244.168 163.659C244.707 163.88 245.285 163.992 245.867 163.987H246.091C246.681 163.965 247.26 163.816 247.788 163.551C248.317 163.286 248.782 162.911 249.153 162.451C249.329 162.28 249.494 162.115 249.494 161.918C250.34 160.715 250.812 159.291 250.852 157.824C250.389 158.35 249.806 158.757 249.153 159.01C249.07 159.01 249.029 159.01 249.008 158.99C248.987 158.969 248.987 158.928 248.987 158.845C249.295 157.969 249.352 157.026 249.153 156.119C249.082 155.578 248.9 155.057 248.619 154.588C248.585 154.898 248.467 155.193 248.278 155.442H248.107C247.981 154.548 247.694 153.684 247.259 152.892C247.166 152.728 247.107 152.546 247.088 152.359C246.872 152.1 246.692 151.813 246.555 151.505C246.339 151.248 246.16 150.963 246.022 150.657V150.486V150.316V150.15V149.98V149.809V147.6V147.43V147.259V147.088V146.918C246.005 145.809 246.242 144.711 246.715 143.708C247.187 142.705 247.882 141.824 248.747 141.13C248.577 141.13 248.406 141.13 248.406 141.306C248.383 141.306 248.36 141.301 248.339 141.293C248.318 141.284 248.299 141.271 248.283 141.254C248.267 141.238 248.255 141.218 248.247 141.197C248.241 141.182 248.237 141.167 248.236 141.151C248.235 141.144 248.235 141.137 248.235 141.13C249.788 139.946 251.734 139.4 253.676 139.604H254.092C254.178 139.604 254.22 139.647 254.263 139.69C254.306 139.732 254.348 139.775 254.434 139.775L254.604 140.623H254.77C255.303 140.794 255.959 141.13 256.13 141.642L258.173 142.496C258.261 142.502 258.343 142.539 258.406 142.6C258.468 142.662 258.507 142.744 258.514 142.832C258.514 142.908 258.514 142.951 258.501 142.989C258.483 143.039 258.441 143.081 258.344 143.178L258.344 143.178C258.344 143.52 258.173 144.709 257.496 144.875C257.281 144.775 257.049 144.719 256.813 144.709C256.279 144.533 255.452 144.363 255.282 144.709C255.282 144.709 254.748 145.728 255.452 145.893C255.74 145.925 256.024 145.984 256.301 146.07H257.154C257.154 146.07 257.495 147.088 256.813 147.259C256.315 147.118 255.798 147.061 255.282 147.088H254.263C253.476 147.077 252.708 146.842 252.049 146.411C252.406 146.939 252.956 147.305 253.58 147.43C253.87 147.527 254.155 147.639 254.434 147.766C254.526 147.755 254.619 147.764 254.706 147.794C254.794 147.823 254.874 147.872 254.94 147.937C255.955 148.301 256.842 148.951 257.496 149.809C257.832 149.638 263.785 146.918 263.785 146.918H263.614V145.728C263.642 145.364 263.767 145.014 263.976 144.715C264.186 144.416 264.471 144.178 264.803 144.027C264.979 143.856 265.145 143.856 265.486 143.856V148.123L260.216 151.857L258.002 151.174C258.002 151.174 257.661 151.004 257.661 151.34C257.496 151.686 257.832 151.686 257.832 151.686L263.785 154.748V154.06C263.786 153.61 263.966 153.178 264.285 152.86C264.604 152.542 265.036 152.364 265.486 152.364V157.976L258.84 155.965C258.565 157.309 257.916 158.548 256.967 159.539C256.285 160.216 255.437 161.235 255.266 162.094C256.226 162.569 257.564 163.104 258.579 163.51L258.58 163.51L258.58 163.51L258.581 163.51L258.581 163.51L258.582 163.511L258.584 163.511L258.584 163.511C259.366 163.824 259.955 164.059 260.029 164.131C260.239 164.908 260.353 165.706 260.371 166.51C260.341 167.313 260.227 168.111 260.029 168.889C261.282 168.707 262.459 168.179 263.427 167.364V165.662C263.429 165.212 263.609 164.78 263.927 164.462C264.246 164.144 264.678 163.966 265.129 163.966V169.402C263.576 170.618 261.66 171.277 259.688 171.274C259.247 171.304 258.832 171.492 258.52 171.804C258.207 172.115 258.017 172.53 257.986 172.97C257.915 172.981 257.842 172.975 257.773 172.951C257.705 172.928 257.643 172.888 257.593 172.836C257.544 172.783 257.507 172.72 257.488 172.65C257.468 172.581 257.465 172.508 257.479 172.437C257.442 171.979 257.498 171.517 257.645 171.082C257.785 170.643 257.843 170.182 257.816 169.722C257.82 168.953 257.637 168.195 257.282 167.513C257.108 167.513 256.973 167.467 256.84 167.423C256.713 167.379 256.588 167.337 256.434 167.337C256.296 167.337 256.114 167.305 255.911 167.269C255.651 167.224 255.355 167.172 255.068 167.172H254.22L254.562 164.451C254.562 164.451 254.562 164.11 254.391 164.11C254.262 164.128 254.142 164.188 254.05 164.281L250.817 172.282L250.844 172.314ZM283.978 105.265C286.067 106.575 287.776 108.41 288.936 110.586H288.941C290.771 111.475 292.296 112.887 293.325 114.642C294.354 116.397 294.841 118.417 294.723 120.449C294.735 121.999 294.407 123.534 293.762 124.944C293.117 126.354 292.17 127.605 290.99 128.61C290.087 130.814 288.623 132.743 286.742 134.205C284.862 135.667 282.632 136.611 280.273 136.942H279.937C277.976 137.346 276.214 138.411 274.944 139.959C273.674 141.507 272.973 143.443 272.96 145.445V169.07C272.96 169.412 273.136 174.853 279.259 175.706H280.614C281.109 175.71 281.582 175.908 281.932 176.257C282.282 176.606 282.481 177.079 282.487 177.573H258.483C258.487 177.078 258.686 176.605 259.036 176.256C259.386 175.906 259.86 175.709 260.355 175.706H261.71C267.321 174.853 268.004 170.095 268.004 169.07V145.434C268 143.335 267.245 141.307 265.875 139.716C264.505 138.125 262.612 137.077 260.536 136.761C258.221 136.426 256.038 135.478 254.212 134.014C252.387 132.551 250.986 130.626 250.156 128.439C248.99 127.422 248.054 126.168 247.41 124.761C246.766 123.354 246.429 121.825 246.422 120.278C246.423 118.291 246.96 116.342 247.978 114.635C248.996 112.929 250.456 111.53 252.204 110.586C253.382 108.425 255.096 106.603 257.181 105.295C259.266 103.987 261.652 103.237 264.11 103.118C266.065 101.964 268.301 101.375 270.57 101.416C272.832 101.435 275.053 102.02 277.03 103.118C279.494 103.215 281.889 103.955 283.978 105.265ZM287.922 126.236L288.6 125.559H288.621C289.44 124.913 290.097 124.085 290.54 123.14C290.982 122.195 291.198 121.161 291.171 120.118C291.175 118.785 290.812 117.476 290.122 116.335C289.431 115.195 288.439 114.267 287.256 113.653L286.237 113.119L285.703 112.095C284.866 110.504 283.623 109.162 282.1 108.206C280.576 107.25 278.827 106.715 277.03 106.654H276.176L275.328 106.313C273.934 105.507 272.346 105.098 270.735 105.129C269.129 105.118 267.548 105.526 266.148 106.313L265.294 106.654H264.473C262.681 106.738 260.942 107.283 259.422 108.236C257.903 109.19 256.655 110.519 255.799 112.095L255.266 113.119L254.247 113.653C253.192 114.193 252.286 114.986 251.611 115.961C250.935 116.936 250.512 118.063 250.377 119.241C250.242 120.42 250.401 121.613 250.839 122.715C251.277 123.817 251.98 124.794 252.887 125.559L253.522 126.172L253.863 127.026C254.375 128.422 255.213 129.675 256.308 130.681C257.403 131.687 258.723 132.416 260.158 132.808C261.195 133.017 262.217 133.3 263.214 133.656L263.747 134.19C263.94 134.19 264.11 134.36 264.281 134.531C264.54 134.664 264.772 134.845 264.964 135.065C266.703 136.136 268.698 136.722 270.741 136.761C272.778 136.807 274.781 136.234 276.486 135.118C276.741 134.978 276.971 134.798 277.168 134.584C277.35 134.584 277.517 134.423 277.688 134.257L277.702 134.243L278.235 133.71C279.234 133.354 280.257 133.07 281.297 132.861C282.703 132.419 283.994 131.672 285.079 130.675C286.164 129.677 287.016 128.453 287.576 127.09L287.922 126.236ZM293.875 96.4688C291.307 97.9433 288.563 99.0868 285.708 99.872H309.712V151.908C309.709 154.94 309.365 157.962 308.688 160.917C307.858 164.215 306.661 167.408 305.119 170.439L305.051 170.575C304.904 170.871 304.757 171.166 304.586 171.458C301.161 177.404 296.23 182.343 290.289 185.777C284.348 189.211 277.607 191.019 270.745 191.019C263.883 191.019 257.142 189.211 251.202 185.777C245.261 182.343 240.33 177.404 236.905 171.458L236.371 170.439C234.686 167.473 233.48 164.259 232.797 160.917C232.115 157.963 231.773 154.94 231.779 151.908V99.872H256.097C253.207 99.0418 250.415 97.9008 247.771 96.4688H228.402V151.908C228.356 155.177 228.756 158.438 229.592 161.6C230.463 165.203 231.776 168.684 233.502 171.964C233.701 172.378 233.929 172.777 234.184 173.159C237.898 179.618 243.249 184.984 249.698 188.715C256.147 192.446 263.466 194.41 270.916 194.41C278.366 194.41 285.685 192.446 292.134 188.715C298.583 184.984 303.934 179.618 307.648 173.159C307.846 172.745 308.074 172.345 308.33 171.964C310.081 168.695 311.396 165.211 312.24 161.6C312.98 158.42 313.378 155.171 313.43 151.908V96.4688H293.875ZM318.698 96.4688L319.722 97.3169L318.02 99.0132L319.722 100.544L318.698 101.568L317.167 99.872L315.465 101.568L314.617 100.544L316.319 99.0132L314.617 97.3169L315.465 96.4688L317.167 98.165L318.698 96.4688ZM226.526 97.3169L225.678 96.4688L224.147 98.165L222.446 96.4688L221.598 97.3169L223.294 99.0132L221.598 100.544L222.446 101.568L224.147 99.872L225.678 101.568L226.526 100.544L224.996 99.0132L226.526 97.3169ZM318.698 136.254L319.722 137.278L318.02 138.809L319.722 140.511L318.698 141.359L317.167 139.657L315.465 141.359L314.617 140.511L316.319 138.809L314.617 137.278L315.465 136.254L317.167 137.956L318.698 136.254ZM226.526 137.278L225.678 136.254L224.147 137.956L222.446 136.254L221.598 137.278L223.294 138.809L221.598 140.511L222.446 141.359L224.147 139.657L225.678 141.359L226.526 140.511L224.996 138.809L226.526 137.278ZM235.034 177.754L235.882 178.602L234.18 180.133L235.882 181.84L235.034 182.688L233.327 180.986L231.796 182.688L230.953 181.84L232.479 180.133L230.953 178.602L231.796 177.754L233.327 179.285L235.034 177.754ZM310.538 178.602L309.69 177.754L307.988 179.285L306.458 177.754L305.609 178.602L307.135 180.133L305.609 181.84L306.458 182.688L307.988 180.986L309.69 182.688L310.538 181.84L308.842 180.133L310.538 178.602ZM272.272 195.785L273.126 196.633L271.595 198.335L273.126 199.86L272.272 200.714L270.741 199.178L269.04 200.714L268.191 199.86L269.893 198.335L268.191 196.633L269.04 195.785L270.741 197.487L272.272 195.785Z" fill="url(#paint2_linear)"/>
</g>
<defs>
<linearGradient id="paint0_linear" x1="-144.914" y1="-98.0855" x2="0.343882" y2="258.72" gradientUnits="userSpaceOnUse">
<stop stop-color="#2A9662"/>
<stop offset="1" stop-color="#2A9662" stop-opacity="0"/>
</linearGradient>
<linearGradient id="paint1_linear" x1="1832.73" y1="-91.0642" x2="1793.85" y2="71.8269" gradientUnits="userSpaceOnUse">
<stop stop-color="#2A9662"/>
<stop offset="1" stop-color="#2A9662" stop-opacity="0"/>
</linearGradient>
<linearGradient id="paint2_linear" x1="281.5" y1="14.5" x2="176.5" y2="171" gradientUnits="userSpaceOnUse">
<stop offset="0.0382725" stop-color="#E6E6E6"/>
<stop offset="0.881068" stop-color="#E6E6E6" stop-opacity="0"/>
</linearGradient>
</defs>
</svg>
